<svg width="16" height="15" viewBox="0 0 16 15" fill="none" xmlns="http://www.w3.org/2000/svg">
<g id="Group 85">
<path id="Vector" fill-rule="evenodd" clip-rule="evenodd" d="M0 2.90891C0 2.71603 0.0766231 2.53104 0.213013 2.39465C0.349403 2.25826 0.534388 2.18164 0.727273 2.18164H15.2727C15.4656 2.18164 15.6506 2.25826 15.787 2.39465C15.9234 2.53104 16 2.71603 16 2.90891V7.99982C16 8.17705 15.9352 8.34817 15.8179 8.48101C15.7006 8.61386 15.5388 8.6993 15.3629 8.72128L9.54473 9.44855L9.36436 8.00564L14.5455 7.35837V3.63619H1.45455V7.35764L6.63564 8.00491L6.45527 9.44855L0.637091 8.72128C0.461228 8.6993 0.299442 8.61386 0.182129 8.48101C0.0648155 8.34817 5.00187e-05 8.17705 0 7.99982V2.90891Z" fill="black"/>
<path id="Vector_2" fill-rule="evenodd" clip-rule="evenodd" d="M5.81809 6.90909C5.81809 6.71621 5.89472 6.53122 6.03111 6.39483C6.1675 6.25844 6.35248 6.18182 6.54537 6.18182H9.45446C9.64734 6.18182 9.83233 6.25844 9.96872 6.39483C10.1051 6.53122 10.1817 6.71621 10.1817 6.90909V10.5455C10.1817 10.7383 10.1051 10.9233 9.96872 11.0597C9.83233 11.1961 9.64734 11.2727 9.45446 11.2727H6.54537C6.35248 11.2727 6.1675 11.1961 6.03111 11.0597C5.89472 10.9233 5.81809 10.7383 5.81809 10.5455V6.90909ZM7.27264 7.63636V9.81818H8.72718V7.63636H7.27264ZM5.09082 1.81818C5.09082 1.33597 5.28238 0.873508 5.62335 0.532533C5.96433 0.191558 6.42679 0 6.909 0H9.09082C9.57303 0 10.0355 0.191558 10.3765 0.532533C10.7174 0.873508 10.909 1.33597 10.909 1.81818V2.90909H9.45446V1.81818C9.45446 1.72174 9.41615 1.62925 9.34795 1.56105C9.27976 1.49286 9.18726 1.45455 9.09082 1.45455H6.909C6.81256 1.45455 6.72007 1.49286 6.65187 1.56105C6.58368 1.62925 6.54537 1.72174 6.54537 1.81818V2.90909H5.09082V1.81818Z" fill="black"/>
<path id="Vector_3" fill-rule="evenodd" clip-rule="evenodd" d="M0.727539 13.8178V8.36328H2.18208V13.0906H13.8184V8.36328H15.273V13.8178C15.273 14.0107 15.1964 14.1957 15.06 14.3321C14.9236 14.4685 14.7386 14.5451 14.5457 14.5451H1.45481C1.26193 14.5451 1.07694 14.4685 0.940552 14.3321C0.804162 14.1957 0.727539 14.0107 0.727539 13.8178Z" fill="black"/>
</g>
</svg>
