<svg width="17" height="23" viewBox="0 0 17 23" fill="none" xmlns="http://www.w3.org/2000/svg">
<g id="Group 51">
<path id="Vector" d="M12.7757 3.00586H3.75739C3.55807 3.00586 3.36692 3.08504 3.22598 3.22598C3.08504 3.36692 3.00586 3.55807 3.00586 3.75739C3.00586 3.95671 3.08504 4.14786 3.22598 4.2888C3.36692 4.42974 3.55807 4.50892 3.75739 4.50892H12.7757C12.9751 4.50892 13.1662 4.42974 13.3072 4.2888C13.4481 4.14786 13.5273 3.95671 13.5273 3.75739C13.5273 3.55807 13.4481 3.36692 13.3072 3.22598C13.1662 3.08504 12.9751 3.00586 12.7757 3.00586ZM12.7757 6.01198H3.75739C3.55807 6.01198 3.36692 6.09116 3.22598 6.2321C3.08504 6.37304 3.00586 6.56419 3.00586 6.76351C3.00586 6.96283 3.08504 7.15398 3.22598 7.29492C3.36692 7.43586 3.55807 7.51504 3.75739 7.51504H12.7757C12.9751 7.51504 13.1662 7.43586 13.3072 7.29492C13.4481 7.15398 13.5273 6.96283 13.5273 6.76351C13.5273 6.56419 13.4481 6.37304 13.3072 6.2321C13.1662 6.09116 12.9751 6.01198 12.7757 6.01198Z" fill="black"/>
<path id="Vector_2" d="M0.75153 22.5459C0.934206 22.5456 1.11053 22.4788 1.24754 22.358L3.69753 21.1556L5.59138 22.4181C5.71409 22.4989 5.8578 22.542 6.00472 22.542C6.15165 22.542 6.29536 22.4989 6.41807 22.4181L8.26683 21.2157L10.1081 22.4181C10.2308 22.4989 10.3745 22.542 10.5214 22.542C10.6683 22.542 10.812 22.4989 10.9348 22.4181L12.8286 21.1556L15.2786 22.358C15.3869 22.4557 15.5212 22.5198 15.6653 22.5425C15.8094 22.5652 15.957 22.5454 16.09 22.4857C16.2231 22.4259 16.3359 22.3288 16.4147 22.206C16.4934 22.0832 16.5348 21.9402 16.5337 21.7944V6.01224C16.5337 5.81292 16.4545 5.62177 16.3135 5.48083C16.1726 5.33989 15.9814 5.26071 15.7821 5.26071C15.5828 5.26071 15.3917 5.33989 15.2507 5.48083C15.1098 5.62177 15.0306 5.81292 15.0306 6.01224V20.5619L13.1067 19.6149C12.9879 19.5568 12.8558 19.531 12.7238 19.5403C12.5919 19.5495 12.4647 19.5934 12.3552 19.6675L10.5214 20.8925L8.68769 19.6901C8.56578 19.6108 8.4235 19.5687 8.2781 19.5687C8.1327 19.5687 7.99043 19.6108 7.86852 19.6901L6.01224 20.8925L4.17099 19.6675C4.06143 19.5934 3.93425 19.5495 3.80229 19.5403C3.67034 19.531 3.53828 19.5568 3.41946 19.6149L1.50306 20.5619V1.50306H15.0306V3.00612C15.0306 3.20544 15.1098 3.39659 15.2507 3.53753C15.3917 3.67847 15.5828 3.75765 15.7821 3.75765C15.9814 3.75765 16.1726 3.67847 16.3135 3.53753C16.4545 3.39659 16.5337 3.20544 16.5337 3.00612V0.75153C16.5337 0.552212 16.4545 0.361057 16.3135 0.220118C16.1726 0.0791788 15.9814 0 15.7821 0H0.75153C0.552212 0 0.361057 0.0791788 0.220118 0.220118C0.079179 0.361057 0 0.552212 0 0.75153V21.7944C0 21.9937 0.079179 22.1848 0.220118 22.3258C0.361057 22.4667 0.552212 22.5459 0.75153 22.5459Z" fill="black"/>
</g>
</svg>
