<svg width="15" height="15" viewBox="0 0 15 15" fill="none" xmlns="http://www.w3.org/2000/svg">
<g id="Profile" clip-path="url(#clip0_397_1440)">
<g id="Page-1">
<g id="Dribbble-Light-Preview">
<g id="icons">
<path id="profile-[#1341]" fill-rule="evenodd" clip-rule="evenodd" d="M7.49952 7.49999C5.83677 7.49999 4.48527 6.15449 4.48527 4.49999C4.48527 2.84549 5.83677 1.49999 7.49952 1.49999C9.16227 1.49999 10.5138 2.84549 10.5138 4.49999C10.5138 6.15449 9.16227 7.49999 7.49952 7.49999ZM10.3315 8.00472C10.9512 7.51128 11.4291 6.86246 11.7166 6.12432C12.004 5.38617 12.0908 4.58502 11.968 3.80245C11.6703 1.8352 10.0263 0.260983 8.04102 0.0314826C5.30202 -0.285767 2.97852 1.83674 2.97852 4.49999C2.97852 5.91749 3.63852 7.18047 4.66752 8.00472C2.13852 8.95047 0.292018 11.1712 0.00251812 14.1682C-0.00760391 14.2733 0.00432114 14.3795 0.0375256 14.4797C0.0707301 14.5799 0.124486 14.6721 0.195357 14.7504C0.266227 14.8287 0.352652 14.8913 0.449107 14.9343C0.545562 14.9772 0.649926 14.9996 0.755522 15C0.940618 15.0015 1.11959 14.9338 1.25736 14.8102C1.39513 14.6866 1.48177 14.5159 1.50027 14.3317C1.80252 10.9845 4.37727 8.99999 7.49952 8.99999C10.6218 8.99999 13.1965 10.9845 13.4988 14.3317C13.5173 14.5159 13.6039 14.6866 13.7417 14.8102C13.8794 14.9338 14.0584 15.0015 14.2435 15C14.6905 15 15.0385 14.6115 14.9958 14.1682C14.707 11.1712 12.8605 8.95047 10.3308 8.00472" fill="black"/>
</g>
</g>
</g>
</g>
<defs>
<clipPath id="clip0_397_1440">
<rect width="15" height="15" fill="white"/>
</clipPath>
</defs>
</svg>
