<svg width="18" height="18" viewBox="0 0 18 18" fill="none" xmlns="http://www.w3.org/2000/svg">
<path id="Vector" d="M12.9975 8.90029L12.9986 8.90028L12.9997 8.90029H13.0003V9.00029C13.0766 8.99936 13.1523 9.01373 13.2229 9.04255C13.2935 9.07137 13.3576 9.11406 13.4115 9.16808C13.4653 9.2221 13.5078 9.28637 13.5363 9.35708C13.5649 9.42778 13.5789 9.5035 13.5777 9.57973L12.9975 8.90029ZM12.9975 8.90029C12.9091 8.90126 12.8217 8.91963 12.7405 8.95438C12.6592 8.98913 12.5856 9.03956 12.5238 9.10279L12.5953 9.17266C12.5428 9.22649 12.5013 9.29015 12.4734 9.36C12.4455 9.42985 12.4316 9.50452 12.4326 9.57973H12.3326V9.58035V10.1202C12.0176 10.1949 11.7171 10.3211 11.4432 10.4935L11.0623 10.1128C11.0621 10.1126 11.062 10.1125 11.0618 10.1123C10.908 9.95492 10.7279 9.89023 10.553 9.8999L10.5585 9.99975M12.9975 8.90029L13.6777 9.58048V10.1201C13.9922 10.1945 14.2922 10.3201 14.5658 10.4919L14.9496 10.1083C14.9498 10.1082 14.9499 10.108 14.9501 10.1078C15.0737 9.9809 15.2426 9.90796 15.4198 9.90491L15.4206 9.90489C15.5984 9.90327 15.7697 9.97195 15.8971 10.096C15.9615 10.1584 16.0128 10.2331 16.0479 10.3156C16.0829 10.3983 16.101 10.4871 16.101 10.5769C16.101 10.6667 16.0829 10.7555 16.0479 10.8382C16.0129 10.9206 15.9618 10.9951 15.8975 11.0574C15.8973 11.0576 15.8971 11.0578 15.8969 11.058L15.5145 11.4402C15.6875 11.7157 15.8137 12.018 15.8878 12.3347H16.4283C16.6064 12.3347 16.7773 12.4054 16.9032 12.5313C17.0292 12.6573 17.1 12.828 17.1 13.0061C17.1 13.1842 17.0292 13.355 16.9032 13.4809C16.7773 13.6069 16.6064 13.6776 16.4283 13.6776H15.8852C15.8105 13.9909 15.6849 14.2898 15.5134 14.5625L15.8993 14.9487C15.9644 15.0101 16.0165 15.0838 16.0527 15.1656C16.0891 15.2479 16.1086 15.3367 16.11 15.4266C16.1114 15.5166 16.0947 15.6059 16.0608 15.6893C16.027 15.7727 15.9768 15.8484 15.9131 15.912C15.8495 15.9756 15.7737 16.0258 15.6902 16.0595C15.6068 16.0933 15.5174 16.1099 15.4274 16.1084C15.3374 16.107 15.2487 16.0874 15.1664 16.051C15.0846 16.0148 15.0108 15.9627 14.9495 15.8976L14.5618 15.5101C14.2888 15.6813 13.9896 15.8065 13.676 15.8807V16.4199C13.6789 16.64 13.5972 16.8128 13.4671 16.9296C13.3389 17.0447 13.1697 17.1 13.0041 17.1C12.8384 17.1 12.6693 17.0447 12.5411 16.9295C12.4111 16.8128 12.3295 16.64 12.3326 16.4199V15.879C12.0185 15.8045 11.7188 15.6789 11.4455 15.5072L11.0601 15.8919C11.06 15.8921 11.0598 15.8923 11.0596 15.8925C10.906 16.0503 10.7261 16.1147 10.5516 16.1055C10.3795 16.0963 10.2208 16.016 10.1036 15.8989C9.98646 15.7818 9.90599 15.6232 9.89678 15.4511C9.88745 15.2766 9.95195 15.0967 10.1098 14.943C10.11 14.9429 10.1101 14.9427 10.1103 14.9425L10.4965 14.5565C10.3291 14.2887 10.2014 13.9927 10.1266 13.6764H9.5844C9.36423 13.6795 9.19138 13.5979 9.07457 13.468C8.95935 13.3399 8.904 13.1708 8.904 13.0052C8.904 12.8396 8.95935 12.6705 9.07455 12.5423C9.19134 12.4123 9.36417 12.3307 9.58435 12.3336H10.1243C10.1983 12.0191 10.3237 11.7191 10.4953 11.4453L10.1126 11.0623C10.1124 11.0622 10.1122 11.062 10.1121 11.0618C9.87217 10.8282 9.85291 10.5399 9.96184 10.3095C10.0677 10.0856 10.2962 9.91346 10.5532 9.89989L10.5585 9.99975M10.5585 9.99975C10.7031 9.99175 10.8558 10.0443 10.9907 10.1826L10.1823 10.9906C9.76667 10.5866 10.1257 10.0226 10.5585 9.99975ZM7.86057 0.9C5.91759 0.9 4.33029 2.4865 4.33029 4.42869C4.33029 6.37089 5.91759 7.95739 7.86057 7.95739C9.80356 7.95739 11.3909 6.37089 11.3909 4.42869C11.3909 2.4865 9.80356 0.9 7.86057 0.9ZM7.86057 2.2429C9.07515 2.2429 10.0474 3.21533 10.0474 4.42869C10.0474 5.64261 9.07517 6.61449 7.86057 6.61449C6.64598 6.61449 5.67372 5.64261 5.67372 4.42869C5.67372 3.21533 6.646 2.2429 7.86057 2.2429ZM6.14543 8.90029C3.2494 8.90029 0.9 11.2485 0.9 14.1433V15.2862C0.9 15.4643 0.970781 15.6351 1.09676 15.761C1.22273 15.8869 1.39358 15.9577 1.57171 15.9577H7.77367C7.95181 15.9577 8.12266 15.8869 8.24863 15.761C8.37461 15.6351 8.44539 15.4643 8.44539 15.2862C8.44539 15.1081 8.37461 14.9373 8.24863 14.8114C8.12266 14.6855 7.95181 14.6148 7.77367 14.6148H2.24343V14.1433C2.24343 11.9728 3.97379 10.2432 6.14543 10.2432H8.44143C8.61957 10.2432 8.79042 10.1725 8.91639 10.0465C9.04237 9.92062 9.11315 9.74983 9.11315 9.57173C9.11315 9.39364 9.04237 9.22285 8.91639 9.09693C8.79042 8.97102 8.61957 8.90029 8.44143 8.90029H6.14543ZM13.006 11.3861C13.9045 11.3861 14.6211 12.102 14.6211 13.0004C14.6211 13.8983 13.9044 14.6148 13.006 14.6148C12.107 14.6148 11.3909 13.8984 11.3909 13.0004C11.3909 12.102 12.107 11.3861 13.006 11.3861Z" fill="black" stroke="black" stroke-width="0.2"/>
</svg>
