<svg width="18" height="18" viewBox="0 0 18 18" fill="none" xmlns="http://www.w3.org/2000/svg">
<path id="Vector" d="M5.88889 1H3.22222C2.63285 1 2.06762 1.23413 1.65087 1.65087C1.23413 2.06762 1 2.63285 1 3.22222C1 3.81159 1.23413 4.37682 1.65087 4.79357C2.06762 5.21032 2.63285 5.44444 3.22222 5.44444H5.88889C6.47826 5.44444 7.04349 5.21032 7.46024 4.79357C7.87699 4.37682 8.11111 3.81159 8.11111 3.22222C8.11111 2.63285 7.87699 2.06762 7.46024 1.65087C7.04349 1.23413 6.47826 1 5.88889 1ZM5.88889 4.55556H3.22222C2.8686 4.55556 2.52946 4.41508 2.27941 4.16503C2.02936 3.91498 1.88889 3.57584 1.88889 3.22222C1.88889 2.8686 2.02936 2.52946 2.27941 2.27941C2.52946 2.02936 2.8686 1.88889 3.22222 1.88889H5.88889C6.24251 1.88889 6.58165 2.02936 6.8317 2.27941C7.08175 2.52946 7.22222 2.8686 7.22222 3.22222C7.22222 3.57584 7.08175 3.91498 6.8317 4.16503C6.58165 4.41508 6.24251 4.55556 5.88889 4.55556ZM5.88889 7.22222H3.22222C2.63285 7.22222 2.06762 7.45635 1.65087 7.8731C1.23413 8.28984 1 8.85507 1 9.44444V14.7778C1 15.3671 1.23413 15.9324 1.65087 16.3491C2.06762 16.7659 2.63285 17 3.22222 17H5.88889C6.47826 17 7.04349 16.7659 7.46024 16.3491C7.87699 15.9324 8.11111 15.3671 8.11111 14.7778V9.44444C8.11111 8.85507 7.87699 8.28984 7.46024 7.8731C7.04349 7.45635 6.47826 7.22222 5.88889 7.22222ZM7.22222 14.7778C7.22222 15.1314 7.08175 15.4705 6.8317 15.7206C6.58165 15.9706 6.24251 16.1111 5.88889 16.1111H3.22222C2.8686 16.1111 2.52946 15.9706 2.27941 15.7206C2.02936 15.4705 1.88889 15.1314 1.88889 14.7778V9.44444C1.88889 9.09082 2.02936 8.75168 2.27941 8.50164C2.52946 8.25159 2.8686 8.11111 3.22222 8.11111H5.88889C6.24251 8.11111 6.58165 8.25159 6.8317 8.50164C7.08175 8.75168 7.22222 9.09082 7.22222 9.44444V14.7778ZM14.7778 12.5556H12.1111C11.5217 12.5556 10.9565 12.7897 10.5398 13.2064C10.123 13.6232 9.88889 14.1884 9.88889 14.7778C9.88889 15.3671 10.123 15.9324 10.5398 16.3491C10.9565 16.7659 11.5217 17 12.1111 17H14.7778C15.3671 17 15.9324 16.7659 16.3491 16.3491C16.7659 15.9324 17 15.3671 17 14.7778C17 14.1884 16.7659 13.6232 16.3491 13.2064C15.9324 12.7897 15.3671 12.5556 14.7778 12.5556ZM14.7778 16.1111H12.1111C11.7575 16.1111 11.4184 15.9706 11.1683 15.7206C10.9183 15.4705 10.7778 15.1314 10.7778 14.7778C10.7778 14.4242 10.9183 14.085 11.1683 13.835C11.4184 13.5849 11.7575 13.4444 12.1111 13.4444H14.7778C15.1314 13.4444 15.4705 13.5849 15.7206 13.835C15.9706 14.085 16.1111 14.4242 16.1111 14.7778C16.1111 15.1314 15.9706 15.4705 15.7206 15.7206C15.4705 15.9706 15.1314 16.1111 14.7778 16.1111ZM14.7778 1H12.1111C11.5217 1 10.9565 1.23413 10.5398 1.65087C10.123 2.06762 9.88889 2.63285 9.88889 3.22222V8.55556C9.88889 9.14493 10.123 9.71016 10.5398 10.1269C10.9565 10.5437 11.5217 10.7778 12.1111 10.7778H14.7778C15.3671 10.7778 15.9324 10.5437 16.3491 10.1269C16.7659 9.71016 17 9.14493 17 8.55556V3.22222C17 2.63285 16.7659 2.06762 16.3491 1.65087C15.9324 1.23413 15.3671 1 14.7778 1ZM16.1111 8.55556C16.1111 8.90918 15.9706 9.24832 15.7206 9.49836C15.4705 9.74841 15.1314 9.88889 14.7778 9.88889H12.1111C11.7575 9.88889 11.4184 9.74841 11.1683 9.49836C10.9183 9.24832 10.7778 8.90918 10.7778 8.55556V3.22222C10.7778 2.8686 10.9183 2.52946 11.1683 2.27941C11.4184 2.02936 11.7575 1.88889 12.1111 1.88889H14.7778C15.1314 1.88889 15.4705 2.02936 15.7206 2.27941C15.9706 2.52946 16.1111 2.8686 16.1111 3.22222V8.55556Z" fill="black" stroke="black" stroke-width="0.5"/>
</svg>
