<svg width="33" height="33" viewBox="0 0 33 33" fill="none" xmlns="http://www.w3.org/2000/svg">
<path id="Vector" d="M32.1316 31.2632H29.5263V7.81579C29.5392 7.62584 29.488 7.43707 29.381 7.27963C29.2739 7.1222 29.1172 7.00521 28.9358 6.94737L22.5789 4.29V31.2632H20.8421V0.868421C20.8421 0.638101 20.7506 0.417215 20.5878 0.254355C20.4249 0.0914943 20.204 0 19.9737 0H4.34211C4.11179 0 3.8909 0.0914943 3.72804 0.254355C3.56518 0.417215 3.47368 0.638101 3.47368 0.868421V31.2632H0.868421C0.638101 31.2632 0.417215 31.3547 0.254355 31.5175C0.0914943 31.6804 0 31.9013 0 32.1316C0 32.3619 0.0914943 32.5828 0.254355 32.7456C0.417215 32.9085 0.638101 33 0.868421 33H32.1316C32.3619 33 32.5828 32.9085 32.7456 32.7456C32.9085 32.5828 33 32.3619 33 32.1316C33 31.9013 32.9085 31.6804 32.7456 31.5175C32.5828 31.3547 32.3619 31.2632 32.1316 31.2632ZM25.1842 10.4211H26.9211C27.1514 10.4211 27.3723 10.5125 27.5351 10.6754C27.698 10.8383 27.7895 11.0592 27.7895 11.2895C27.785 11.5184 27.6921 11.7367 27.5302 11.8986C27.3683 12.0605 27.15 12.1534 26.9211 12.1579H25.1842C24.9553 12.1534 24.737 12.0605 24.5751 11.8986C24.4132 11.7367 24.3202 11.5184 24.3158 11.2895C24.3158 11.0592 24.4073 10.8383 24.5701 10.6754C24.733 10.5125 24.9539 10.4211 25.1842 10.4211ZM25.1842 15.6316H26.9211C27.1514 15.6316 27.3723 15.7231 27.5351 15.8859C27.698 16.0488 27.7895 16.2697 27.7895 16.5C27.7895 16.7303 27.698 16.9512 27.5351 17.1141C27.3723 17.2769 27.1514 17.3684 26.9211 17.3684H25.1842C24.9539 17.3684 24.733 17.2769 24.5701 17.1141C24.4073 16.9512 24.3158 16.7303 24.3158 16.5C24.3158 16.2697 24.4073 16.0488 24.5701 15.8859C24.733 15.7231 24.9539 15.6316 25.1842 15.6316ZM25.1842 20.8421H26.9211C27.15 20.8466 27.3683 20.9395 27.5302 21.1014C27.6921 21.2633 27.785 21.4816 27.7895 21.7105C27.7895 21.9408 27.698 22.1617 27.5351 22.3246C27.3723 22.4875 27.1514 22.5789 26.9211 22.5789H25.1842C24.9539 22.5789 24.733 22.4875 24.5701 22.3246C24.4073 22.1617 24.3158 21.9408 24.3158 21.7105C24.3202 21.4816 24.4132 21.2633 24.5751 21.1014C24.737 20.9395 24.9553 20.8466 25.1842 20.8421ZM25.1842 26.0526H26.9211C27.1514 26.0526 27.3723 26.1441 27.5351 26.307C27.698 26.4698 27.7895 26.6907 27.7895 26.9211C27.7895 27.1514 27.698 27.3723 27.5351 27.5351C27.3723 27.698 27.1514 27.7895 26.9211 27.7895H25.1842C24.9539 27.7895 24.733 27.698 24.5701 27.5351C24.4073 27.3723 24.3158 27.1514 24.3158 26.9211C24.3158 26.6907 24.4073 26.4698 24.5701 26.307C24.733 26.1441 24.9539 26.0526 25.1842 26.0526ZM13.8947 5.21053H15.6316C15.8619 5.21053 16.0828 5.30202 16.2456 5.46488C16.4085 5.62774 16.5 5.84863 16.5 6.07895C16.5 6.30927 16.4085 6.53015 16.2456 6.69301C16.0828 6.85587 15.8619 6.94737 15.6316 6.94737H13.8947C13.6644 6.94737 13.4435 6.85587 13.2807 6.69301C13.1178 6.53015 13.0263 6.30927 13.0263 6.07895C13.0263 5.84863 13.1178 5.62774 13.2807 5.46488C13.4435 5.30202 13.6644 5.21053 13.8947 5.21053ZM13.8947 10.4211H15.6316C15.8619 10.4211 16.0828 10.5125 16.2456 10.6754C16.4085 10.8383 16.5 11.0592 16.5 11.2895C16.5 11.5198 16.4085 11.7407 16.2456 11.9035C16.0828 12.0664 15.8619 12.1579 15.6316 12.1579H13.8947C13.6644 12.1579 13.4435 12.0664 13.2807 11.9035C13.1178 11.7407 13.0263 11.5198 13.0263 11.2895C13.0263 11.0592 13.1178 10.8383 13.2807 10.6754C13.4435 10.5125 13.6644 10.4211 13.8947 10.4211ZM13.8947 15.6316H15.6316C15.8619 15.6316 16.0828 15.7231 16.2456 15.8859C16.4085 16.0488 16.5 16.2697 16.5 16.5C16.5 16.7303 16.4085 16.9512 16.2456 17.1141C16.0828 17.2769 15.8619 17.3684 15.6316 17.3684H13.8947C13.6644 17.3684 13.4435 17.2769 13.2807 17.1141C13.1178 16.9512 13.0263 16.7303 13.0263 16.5C13.0263 16.2697 13.1178 16.0488 13.2807 15.8859C13.4435 15.7231 13.6644 15.6316 13.8947 15.6316ZM13.8947 20.8421H15.6316C15.8619 20.8421 16.0828 20.9336 16.2456 21.0965C16.4085 21.2593 16.5 21.4802 16.5 21.7105C16.5 21.9408 16.4085 22.1617 16.2456 22.3246C16.0828 22.4875 15.8619 22.5789 15.6316 22.5789H13.8947C13.6644 22.5789 13.4435 22.4875 13.2807 22.3246C13.1178 22.1617 13.0263 21.9408 13.0263 21.7105C13.0263 21.4802 13.1178 21.2593 13.2807 21.0965C13.4435 20.9336 13.6644 20.8421 13.8947 20.8421ZM8.58 5.21053H10.4211C10.6514 5.21053 10.8723 5.30202 11.0351 5.46488C11.198 5.62774 11.2895 5.84863 11.2895 6.07895C11.2895 6.30927 11.198 6.53015 11.0351 6.69301C10.8723 6.85587 10.6514 6.94737 10.4211 6.94737H8.68421C8.45389 6.94737 8.23301 6.85587 8.07014 6.69301C7.90728 6.53015 7.81579 6.30927 7.81579 6.07895C7.81579 5.84863 7.90728 5.62774 8.07014 5.46488C8.23301 5.30202 8.45389 5.21053 8.68421 5.21053H8.58ZM8.58 10.4211H10.4211C10.6514 10.4211 10.8723 10.5125 11.0351 10.6754C11.198 10.8383 11.2895 11.0592 11.2895 11.2895C11.2895 11.5198 11.198 11.7407 11.0351 11.9035C10.8723 12.0664 10.6514 12.1579 10.4211 12.1579H8.68421C8.45389 12.1579 8.23301 12.0664 8.07014 11.9035C7.90728 11.7407 7.81579 11.5198 7.81579 11.2895C7.81579 11.0592 7.90728 10.8383 8.07014 10.6754C8.23301 10.5125 8.45389 10.4211 8.68421 10.4211H8.58ZM8.58 15.6316H10.4211C10.6514 15.6316 10.8723 15.7231 11.0351 15.8859C11.198 16.0488 11.2895 16.2697 11.2895 16.5C11.2895 16.7303 11.198 16.9512 11.0351 17.1141C10.8723 17.2769 10.6514 17.3684 10.4211 17.3684H8.68421C8.45389 17.3684 8.23301 17.2769 8.07014 17.1141C7.90728 16.9512 7.81579 16.7303 7.81579 16.5C7.81579 16.2697 7.90728 16.0488 8.07014 15.8859C8.23301 15.7231 8.45389 15.6316 8.68421 15.6316H8.58ZM8.58 20.8421H10.4211C10.6514 20.8421 10.8723 20.9336 11.0351 21.0965C11.198 21.2593 11.2895 21.4802 11.2895 21.7105C11.2895 21.9408 11.198 22.1617 11.0351 22.3246C10.8723 22.4875 10.6514 22.5789 10.4211 22.5789H8.68421C8.45389 22.5789 8.23301 22.4875 8.07014 22.3246C7.90728 22.1617 7.81579 21.9408 7.81579 21.7105C7.81579 21.4802 7.90728 21.2593 8.07014 21.0965C8.23301 20.9336 8.45389 20.8421 8.68421 20.8421H8.58ZM13.0263 31.2632V27.7895H11.2895V31.2632H9.55263V26.8689C9.56593 26.6478 9.66326 26.4401 9.8247 26.2883C9.98614 26.1365 10.1995 26.0522 10.4211 26.0526H13.8947C14.1251 26.0526 14.3459 26.1441 14.5088 26.307C14.6717 26.4698 14.7632 26.6907 14.7632 26.9211V31.2632H13.0263Z" fill="#2B3344" fill-opacity="0.5"/>
</svg>
