<svg width="78" height="78" viewBox="0 0 78 78" fill="none" xmlns="http://www.w3.org/2000/svg">
<path d="M39 78C60.5391 78 78 60.5391 78 39C78 17.4609 60.5391 0 39 0C17.4609 0 0 17.4609 0 39C0 60.5391 17.4609 78 39 78Z" fill="url(#paint0_linear_281_1941)"/>
<path fillRule="evenodd" clipRule="evenodd" d="M64.3919 56.0207C63.819 56.3572 63.1516 56.5502 62.4392 56.5502H15.5612C14.8488 56.5502 14.1814 56.3572 13.6085 56.0207L29.2502 40.3791L33.1108 44.2396C34.6027 45.7315 36.5858 46.4752 39.0002 46.4752C41.4146 46.4752 43.3977 45.7315 44.8896 44.2396L48.7502 40.3791L64.3919 56.0207ZM65.7707 54.6419L50.1291 39.0002L65.7707 23.3585C66.1072 23.9314 66.3002 24.5988 66.3002 25.3112V52.6892C66.3002 53.4016 66.1072 54.069 65.7707 54.6419ZM12.2297 54.6419C11.8932 54.069 11.7002 53.4016 11.7002 52.6892V25.3112C11.7002 24.5988 11.8932 23.9314 12.2297 23.3585L27.8713 39.0002L12.2297 54.6419ZM64.3919 21.9797L43.5108 42.8608C42.4027 43.9689 40.9191 44.5252 39.0002 44.5252C37.0813 44.5252 35.5977 43.9689 34.4896 42.8608L13.6085 21.9797C14.1814 21.6432 14.8488 21.4502 15.5612 21.4502H62.4392C63.1516 21.4502 63.819 21.6432 64.3919 21.9797Z" fill="white"/>
<defs>
<linearGradient id="paint0_linear_281_1941" x1="78" y1="93" x2="78" y2="-18" gradientUnits="userSpaceOnUse">
<stop stop-color="#1D6FF2"/>
<stop offset="1" stop-color="#B6CEF4"/>
</linearGradient>
</defs>
</svg>
