<svg width="24" height="24" viewBox="0 0 24 24" fill="none" xmlns="http://www.w3.org/2000/svg">
<g id="Group 97">
<circle id="Ellipse 114" cx="12" cy="12" r="12" fill="black"/>
<path id="Vector" d="M12 4C7.58871 4 4 7.58871 4 12C4 16.4113 7.58871 20 12 20C16.4113 20 20 16.4113 20 12C20 7.58871 16.4113 4 12 4ZM15.4337 13.6138C15.478 13.0815 15.5023 12.5408 15.5023 12C15.5023 11.4592 15.478 10.9185 15.4337 10.3862C17.4041 10.8152 18.4516 11.551 18.4516 12C18.4516 12.449 17.4041 13.1848 15.4337 13.6138ZM12 18.4516C11.551 18.4516 10.8152 17.4041 10.3862 15.4337C10.9185 15.478 11.4592 15.5023 12 15.5023C12.5408 15.5023 13.0815 15.478 13.6138 15.4337C13.1848 17.4041 12.449 18.4516 12 18.4516ZM12 13.9539C11.3289 13.9539 10.7125 13.9177 10.1411 13.8589C10.0823 13.2875 10.0461 12.6711 10.0461 12C10.0461 11.3289 10.0823 10.7125 10.1411 10.1411C10.7125 10.0823 11.3289 10.0461 12 10.0461C12.6711 10.0461 13.2875 10.0823 13.8589 10.1411C13.9177 10.7125 13.9539 11.3289 13.9539 12C13.9539 12.6711 13.9177 13.2875 13.8589 13.8589C13.2875 13.9177 12.6711 13.9539 12 13.9539ZM5.54839 12C5.54839 11.551 6.59589 10.8152 8.56628 10.3862C8.52202 10.9185 8.49773 11.4592 8.49773 12C8.49773 12.5408 8.52202 13.0815 8.56628 13.6138C6.59589 13.1848 5.54839 12.449 5.54839 12ZM12 5.54839C12.449 5.54839 13.1848 6.59589 13.6138 8.56628C13.0815 8.52202 12.5408 8.49773 12 8.49773C11.4592 8.49773 10.9185 8.52202 10.3862 8.56628C10.8152 6.59589 11.551 5.54839 12 5.54839ZM17.984 9.60065C17.209 9.23431 16.2585 8.96003 15.2244 8.77561C15.04 7.7415 14.7657 6.79099 14.3994 6.01601C16.0285 6.67165 17.3283 7.97152 17.984 9.60065ZM9.60065 6.01604C9.23431 6.79102 8.96003 7.74153 8.77561 8.77561C7.74153 8.96003 6.79102 9.23425 6.01604 9.60062C6.67169 7.97149 7.97156 6.67169 9.60065 6.01604ZM6.01607 14.3994C6.79105 14.7657 7.74153 15.04 8.77561 15.2244C8.96003 16.2585 9.23425 17.2089 9.60062 17.9839C7.97156 17.3283 6.67172 16.0284 6.01607 14.3994ZM14.3994 17.984C14.7657 17.209 15.04 16.2585 15.2244 15.2244C16.2585 15.04 17.209 14.7657 17.984 14.3994C17.3283 16.0284 16.0285 17.3283 14.3994 17.984Z" fill="white"/>
</g>
</svg>
