<svg
                width="626"
                height="266"
                viewBox="0 0 626 266"
                fill="none"
                xmlns="http://www.w3.org/2000/svg"
              >
                <path
                  d="M225.141 247H114.859C112.245 246.997 109.739 245.961 107.891 244.12C106.043 242.278 105.003 239.781 105 237.177V77.8233C105.003 75.2189 106.043 72.722 107.891 70.8804C109.739 69.0388 112.245 68.0029 114.859 68H225.141C227.755 68.0029 230.261 69.0388 232.109 70.8804C233.957 72.722 234.997 75.2189 235 77.8233V237.177C234.997 239.781 233.957 242.278 232.109 244.12C230.261 245.961 227.755 246.997 225.141 247Z"
                  fill="#EDF0F3"
                />
                <path
                  d="M224.98 240H115.02C114.219 239.999 113.452 239.681 112.885 239.115C112.319 238.548 112.001 237.781 112 236.98V77.0197C112.001 76.2191 112.319 75.4516 112.885 74.8855C113.452 74.3194 114.219 74.0009 115.02 74H224.98C225.781 74.0009 226.548 74.3194 227.115 74.8855C227.681 75.4516 227.999 76.2191 228 77.0197V236.98C227.999 237.781 227.681 238.548 227.115 239.115C226.548 239.681 225.781 239.999 224.98 240Z"
                  fill="white"
                />
                <path
                  d="M167.058 197H166.942C166.692 197 166.453 196.938 166.276 196.829C166.1 196.72 166 196.571 166 196.417V190.583C166 190.429 166.1 190.28 166.276 190.171C166.453 190.062 166.692 190 166.942 190H167.058C167.308 190 167.547 190.062 167.724 190.171C167.9 190.28 168 190.429 168 190.583V196.417C168 196.571 167.9 196.72 167.724 196.829C167.547 196.938 167.308 197 167.058 197Z"
                  fill="#3F3D56"
                />
                <path
                  d="M172.058 197H171.942C171.692 197 171.453 196.938 171.276 196.829C171.1 196.72 171 196.571 171 196.417V190.583C171 190.429 171.1 190.28 171.276 190.171C171.453 190.062 171.692 190 171.942 190H172.058C172.308 190 172.547 190.062 172.724 190.171C172.9 190.28 173 190.429 173 190.583V196.417C173 196.571 172.9 196.72 172.724 196.829C172.547 196.938 172.308 197 172.058 197Z"
                  fill="#3F3D56"
                />
                <path
                  d="M127.587 197H127.413C127.038 197 126.679 196.938 126.414 196.829C126.149 196.72 126 196.571 126 196.417V190.583C126 190.429 126.149 190.28 126.414 190.171C126.679 190.062 127.038 190 127.413 190H127.587C127.962 190 128.321 190.062 128.586 190.171C128.851 190.28 129 190.429 129 190.583V196.417C129 196.571 128.851 196.72 128.586 196.829C128.321 196.938 127.962 197 127.587 197Z"
                  fill="#3F3D56"
                />
                <path
                  d="M132.632 197C132.573 197 132.515 196.987 132.463 196.961C132.41 196.935 132.366 196.898 132.332 196.852L130.111 193.868C130.039 193.772 130.001 193.656 130 193.538C129.999 193.42 130.037 193.304 130.107 193.207L132.33 190.151C132.374 190.09 132.438 190.043 132.512 190.019C132.586 189.995 132.667 189.994 132.741 190.016C132.816 190.038 132.882 190.082 132.928 190.141C132.975 190.201 133 190.273 133 190.348V196.652C133 196.726 132.975 196.798 132.929 196.858C132.883 196.917 132.818 196.961 132.743 196.984C132.707 196.994 132.67 197 132.632 197Z"
                  fill="#3F3D56"
                />
                <path
                  d="M212 196.417V190.583C212 190.429 212.1 190.28 212.276 190.171C212.453 190.062 212.692 190 212.942 190H213.058C213.308 190 213.547 190.062 213.724 190.171C213.9 190.28 214 190.429 214 190.583V196.417C214 196.571 213.9 196.72 213.724 196.829C213.547 196.938 213.308 197 213.058 197H212.942C212.692 197 212.453 196.938 212.276 196.829C212.1 196.72 212 196.571 212 196.417Z"
                  fill="#3F3D56"
                />
                <path
                  d="M207.428 196.984C207.303 196.961 207.195 196.917 207.118 196.858C207.041 196.798 207 196.726 207 196.652V190.348C207 190.273 207.042 190.201 207.119 190.141C207.197 190.082 207.306 190.038 207.431 190.016C207.556 189.994 207.69 189.995 207.813 190.019C207.937 190.043 208.043 190.09 208.117 190.151L211.821 193.207C211.939 193.304 212.001 193.42 212 193.538C211.999 193.656 211.934 193.772 211.815 193.868L208.114 196.852C208.057 196.898 207.983 196.935 207.896 196.961C207.809 196.987 207.712 197 207.614 197C207.551 197 207.488 196.994 207.428 196.984Z"
                  fill="#3F3D56"
                />
                <path d="M214 180H126V181H214V180Z" fill="#CBCBCB" />
                <path d="M185 180H126V181H185V180Z" fill="#6610F2" />
                <path
                  d="M185 184C186.657 184 188 182.657 188 181C188 179.343 186.657 178 185 178C183.343 178 182 179.343 182 181C182 182.657 183.343 184 185 184Z"
                  fill="#6610F2"
                />
                <path
                  d="M170 133C167.879 132.998 165.846 132.214 164.346 130.821C162.846 129.428 162.002 127.539 162 125.568V109.432C162 107.461 162.843 105.57 164.343 104.177C165.843 102.783 167.878 102 170 102C172.122 102 174.157 102.783 175.657 104.177C177.157 105.57 178 107.461 178 109.432V125.568C177.998 127.539 177.154 129.428 175.654 130.821C174.154 132.214 172.121 132.998 170 133Z"
                  fill="#6610F2"
                />
                <path
                  d="M170 141C165.493 140.995 161.172 139.141 157.985 135.847C154.798 132.552 153.005 128.085 153 123.425C153 123.047 153.145 122.685 153.404 122.417C153.662 122.15 154.013 122 154.378 122C154.744 122 155.095 122.15 155.353 122.417C155.612 122.685 155.757 123.047 155.757 123.425C155.757 127.33 157.257 131.076 159.928 133.837C162.6 136.599 166.222 138.15 170 138.15C173.778 138.15 177.4 136.599 180.071 133.837C182.743 131.076 184.243 127.33 184.243 123.425C184.243 123.047 184.388 122.685 184.647 122.417C184.905 122.15 185.256 122 185.622 122C185.987 122 186.338 122.15 186.596 122.417C186.855 122.685 187 123.047 187 123.425C186.995 128.085 185.202 132.552 182.015 135.847C178.828 139.141 174.507 140.995 170 141Z"
                  fill="#6610F2"
                />
                <path
                  d="M170 156C169.735 156 169.48 155.854 169.293 155.594C169.105 155.335 169 154.983 169 154.615V139.385C169 139.017 169.105 138.665 169.293 138.406C169.48 138.146 169.735 138 170 138C170.265 138 170.52 138.146 170.707 138.406C170.895 138.665 171 139.017 171 139.385V154.615C171 154.983 170.895 155.335 170.707 155.594C170.52 155.854 170.265 156 170 156Z"
                  fill="#6610F2"
                />
                <path
                  d="M166 107C166.552 107 167 106.328 167 105.5C167 104.672 166.552 104 166 104C165.448 104 165 104.672 165 105.5C165 106.328 165.448 107 166 107Z"
                  fill="white"
                />
                <path
                  d="M166 115C166.552 115 167 114.552 167 114C167 113.448 166.552 113 166 113C165.448 113 165 113.448 165 114C165 114.552 165.448 115 166 115Z"
                  fill="white"
                />
                <path
                  d="M172.5 111C173.328 111 174 110.328 174 109.5C174 108.672 173.328 108 172.5 108C171.672 108 171 108.672 171 109.5C171 110.328 171.672 111 172.5 111Z"
                  fill="white"
                />
                <path
                  d="M180.655 156H159.345C158.988 156 158.646 155.842 158.394 155.561C158.142 155.279 158 154.898 158 154.5C158 154.102 158.142 153.721 158.394 153.439C158.646 153.158 158.988 153 159.345 153H180.655C181.012 153 181.354 153.158 181.606 153.439C181.858 153.721 182 154.102 182 154.5C182 154.898 181.858 155.279 181.606 155.561C181.354 155.842 181.012 156 180.655 156Z"
                  fill="#6610F2"
                />
                <path
                  d="M65.2588 197.599C65.8202 197.358 66.3135 197.013 66.704 196.59C67.0945 196.166 67.3726 195.674 67.5189 195.147C67.6651 194.621 67.6759 194.073 67.5504 193.542C67.4249 193.012 67.1663 192.512 66.7926 192.077L70 165H63.0686L60.5196 191.439C59.7152 192.03 59.1895 192.854 59.0422 193.757C58.8949 194.659 59.1362 195.577 59.7204 196.337C60.3045 197.096 61.191 197.644 62.2118 197.877C63.2325 198.109 64.3167 198.011 65.2588 197.599Z"
                  fill="#9F616A"
                />
                <path
                  d="M70.5 151C75.1944 151 79 146.971 79 142C79 137.029 75.1944 133 70.5 133C65.8056 133 62 137.029 62 142C62 146.971 65.8056 151 70.5 151Z"
                  fill="#9F616A"
                />
                <path
                  d="M71.7615 181C71.423 181 71.0938 180.89 70.8245 180.686C70.5553 180.483 70.3608 180.197 70.2708 179.874C69.5933 177.433 67.8304 173.306 65.0313 167.608C64.3997 166.319 64.0499 164.913 64.005 163.482C63.96 162.05 64.2209 160.625 64.7704 159.301C65.3199 157.976 66.1458 156.781 67.1937 155.795C68.2416 154.809 69.4879 154.054 70.8509 153.579C72.1425 153.127 73.5125 152.937 74.8798 153.019C76.2471 153.101 77.584 153.454 78.8112 154.057C80.0385 154.66 81.1313 155.501 82.0249 156.53C82.9185 157.56 83.5949 158.756 84.0139 160.049C86.1835 166.793 86.0788 174.017 85.933 176.81C85.9149 177.146 85.7861 177.467 85.5663 177.724C85.3465 177.981 85.0479 178.159 84.7161 178.231L72.0938 180.964C71.9847 180.988 71.8733 181 71.7615 181Z"
                  fill="#6C63FF"
                />
                <path
                  d="M85.0007 261H89.0661L91 245H85L85.0007 261Z"
                  fill="#9F616A"
                />
                <path
                  d="M84.0002 266L84 260L91.9398 260C93.2818 260 94.5688 260.612 95.5178 261.702C96.4668 262.791 96.9999 264.269 97 265.81V265.999L84.0002 266Z"
                  fill="#2F2E41"
                />
                <path
                  d="M42 255.879L45.8926 258L56 244.13L50.2548 241L42 255.879Z"
                  fill="#9F616A"
                />
                <path
                  d="M51.3024 266L40 259.068L42.4973 254L49.4003 258.234C50.5659 258.951 51.4291 260.154 51.8004 261.58C52.1718 263.006 52.0209 264.538 51.381 265.84L51.3024 266Z"
                  fill="#2F2E41"
                />
                <path
                  d="M84.592 252C84.2211 252 83.863 251.862 83.5845 251.612C83.306 251.363 83.1261 251.018 83.0784 250.643L77.8731 209.765C77.8501 209.584 77.7716 209.415 77.6488 209.283C77.5261 209.15 77.3653 209.06 77.1896 209.026C77.0138 208.992 76.832 209.016 76.6701 209.093C76.5082 209.171 76.3745 209.299 76.2881 209.458L54.5943 249.57C54.4153 249.897 54.1269 250.148 53.7815 250.277C53.4362 250.407 53.0569 250.405 52.7125 250.273L47.9839 248.437C47.7937 248.364 47.6199 248.252 47.4727 248.108C47.3255 247.965 47.2079 247.793 47.1267 247.603C47.0455 247.413 47.0025 247.208 47.0001 247.001C46.9977 246.793 47.036 246.588 47.1127 246.396L62.1406 208.773C62.1786 208.678 62.2044 208.577 62.2173 208.475C64.2528 192.42 69.4316 184.255 70.9703 182.135C71.0827 181.98 71.1567 181.798 71.186 181.607C71.2153 181.416 71.1991 181.221 71.1387 181.038L70.9272 180.391C70.8427 180.134 70.8253 179.86 70.8769 179.594C70.9285 179.328 71.0471 179.081 71.2212 178.876C76.7657 172.44 86.4296 175.952 86.5266 175.989L86.575 176.007L86.6054 176.049C97.4415 191.194 93.435 240.385 92.5218 250.092C92.4877 250.456 92.3281 250.797 92.0713 251.054C91.8144 251.31 91.4769 251.466 91.1183 251.493L84.7106 251.996C84.6709 251.999 84.6313 252 84.592 252Z"
                  fill="#2F2E41"
                />
                <path
                  d="M103.73 150.842C103.687 151.031 103.659 151.224 103.646 151.417L88.5706 160.112L84.9063 158.003L81 163.115L87.1239 167.479C87.6186 167.831 88.2144 168.014 88.8218 167.999C89.4291 167.984 90.0153 167.773 90.4922 167.397L106.037 155.137C106.739 155.396 107.503 155.436 108.228 155.251C108.953 155.066 109.604 154.665 110.095 154.101C110.586 153.536 110.894 152.836 110.977 152.093C111.06 151.35 110.915 150.599 110.561 149.94C110.207 149.281 109.661 148.746 108.995 148.405C108.329 148.064 107.576 147.934 106.834 148.032C106.092 148.13 105.398 148.451 104.844 148.953C104.289 149.455 103.901 150.114 103.73 150.842Z"
                  fill="#9F616A"
                />
                <path
                  d="M87.6888 161.099L83.0782 167.388C82.947 167.567 82.7808 167.714 82.5907 167.819C82.4006 167.924 82.1912 167.985 81.9768 167.998C81.7624 168.01 81.548 167.974 81.3481 167.891C81.1483 167.808 80.9677 167.681 80.8188 167.518L75.5993 161.814C74.7321 161.102 74.1685 160.058 74.0321 158.91C73.8957 157.762 74.1977 156.604 74.8718 155.69C75.546 154.776 76.5371 154.18 77.6278 154.035C78.7184 153.889 79.8194 154.205 80.689 154.913L87.2353 158.765C87.4228 158.876 87.5854 159.027 87.7121 159.21C87.8388 159.392 87.9267 159.601 87.9697 159.823C88.0127 160.044 88.0099 160.273 87.9614 160.493C87.9129 160.713 87.8199 160.92 87.6888 161.099Z"
                  fill="#6C63FF"
                />
                <path
                  d="M69.6929 171.976L61.376 170.619C61.1394 170.58 60.9147 170.496 60.7173 170.371C60.52 170.247 60.3546 170.086 60.2323 169.899C60.1101 169.712 60.0339 169.503 60.009 169.287C59.9841 169.071 60.011 168.852 60.0879 168.646L62.7841 161.431C63.0095 160.338 63.7054 159.37 64.7191 158.74C65.7329 158.109 66.9818 157.868 68.1919 158.069C69.4021 158.27 70.4747 158.896 71.1747 159.811C71.8746 160.725 72.1448 161.854 71.9258 162.948L71.6628 170.535C71.6551 170.753 71.5958 170.966 71.4888 171.16C71.3819 171.355 71.2297 171.527 71.0428 171.663C70.8558 171.8 70.6385 171.899 70.4055 171.953C70.1726 172.007 69.9295 172.015 69.6929 171.976Z"
                  fill="#6C63FF"
                />
                <path
                  d="M72.2341 140.452C74.3934 141.942 77.2285 143.474 79.4339 141.887C80.882 140.845 81.3382 138.916 80.751 137.223C79.695 134.178 76.7937 132.837 74.0192 131.81C70.4125 130.474 66.4853 129.411 62.762 130.368C59.0386 131.324 55.748 134.959 56.4202 138.774C56.9607 141.841 59.8304 144.394 59.423 147.482C59.013 150.591 55.5463 152.227 52.4857 152.782C49.4251 153.338 46.0003 153.516 43.8008 155.733C40.9949 158.561 41.6956 163.615 44.3358 166.601C46.976 169.586 50.9602 170.939 54.821 171.86C59.9362 173.078 65.4687 173.719 70.3268 171.696C75.185 169.673 78.9656 164.228 77.5582 159.121C76.9638 156.964 75.5634 155.141 74.21 153.367C72.8567 151.592 71.4863 149.736 70.97 147.559C70.5398 145.745 70.8582 143.638 72.0515 142.277C72.2686 142.039 72.4052 141.737 72.4417 141.416C72.4782 141.094 72.4128 140.77 72.2548 140.488L72.2341 140.452Z"
                  fill="#2F2E41"
                />
                <path
                  d="M513.841 1.63037L507.425 5.13222L428.384 48.2758L421.968 51.7776C418.855 53.4814 416.545 56.3509 415.544 59.7566C414.543 63.1624 414.934 66.8262 416.63 69.9443L475.49 177.864C477.193 180.978 480.062 183.289 483.466 184.291C486.87 185.292 490.533 184.901 493.65 183.204L493.666 183.195L585.506 133.066L585.522 133.057C588.635 131.353 590.946 128.484 591.946 125.078C592.947 121.672 592.557 118.009 590.861 114.891L532 6.97098C530.297 3.85671 527.429 1.54544 524.025 0.544225C520.62 -0.456989 516.958 -0.0663769 513.841 1.63037Z"
                  fill="#30E981"
                />
                <path
                  d="M515.712 3.62765L508.097 7.84113L431.26 50.357L423.645 54.5704C421.424 55.8029 419.775 57.8788 419.061 60.3425C418.346 62.8063 418.625 65.4568 419.835 67.7125L478.82 177.344C480.035 179.597 482.082 181.269 484.512 181.993C486.941 182.717 489.555 182.435 491.779 181.207L491.796 181.198L583.829 130.274L583.846 130.265C586.067 129.032 587.716 126.956 588.43 124.492C589.144 122.029 588.866 119.378 587.655 117.123L528.671 7.49119C527.455 5.23828 525.408 3.56626 522.979 2.84196C520.55 2.11765 517.936 2.40021 515.712 3.62765Z"
                  fill="white"
                />
                <path
                  d="M517.834 38.4793L482.092 57.2577C481.55 57.5422 480.913 57.6079 480.322 57.4404C479.73 57.2729 479.231 56.8858 478.936 56.3644C478.641 55.8431 478.572 55.23 478.746 54.6602C478.92 54.0903 479.322 53.6104 479.864 53.3259L515.606 34.5475C516.148 34.263 516.785 34.1973 517.376 34.3648C517.968 34.5324 518.467 34.9194 518.762 35.4408C519.058 35.9622 519.126 36.5752 518.952 37.145C518.778 37.7149 518.376 38.1948 517.834 38.4793Z"
                  fill="#F2F2F2"
                />
                <path
                  d="M528.908 39.7751L486.825 63.3734C486.309 63.6628 485.703 63.7296 485.139 63.5592C484.575 63.3889 484.1 62.9952 483.819 62.465C483.537 61.9347 483.472 61.3112 483.638 60.7317C483.804 60.1521 484.187 59.664 484.703 59.3747L526.785 35.7763C527.04 35.633 527.321 35.5429 527.61 35.511C527.9 35.4791 528.192 35.5062 528.472 35.5905C528.751 35.6749 529.011 35.8149 529.238 36.0027C529.464 36.1904 529.652 36.4222 529.792 36.6848C529.931 36.9473 530.019 37.2355 530.05 37.5329C530.081 37.8303 530.055 38.1311 529.973 38.4181C529.891 38.705 529.754 38.9726 529.572 39.2054C529.389 39.4382 529.163 39.6318 528.908 39.7751Z"
                  fill="#F2F2F2"
                />
                <path
                  d="M468.338 49.0971L436.372 66.828C436.121 66.9677 435.934 67.2032 435.853 67.4828C435.772 67.7625 435.804 68.0633 435.941 68.3191L449.553 93.681C449.69 93.9368 449.922 94.1267 450.197 94.2089C450.472 94.2911 450.768 94.2589 451.019 94.1194L482.985 76.3884C483.236 76.2487 483.423 76.0132 483.504 75.7336C483.585 75.454 483.553 75.1532 483.416 74.8973L469.804 49.5354C469.667 49.2796 469.435 49.0897 469.16 49.0075C468.885 48.9253 468.589 48.9575 468.338 49.0971Z"
                  fill="#30E981"
                />
                <path
                  d="M535.01 70.2249L488.1 95.2092C487.841 95.3474 487.556 95.4343 487.262 95.4651C486.968 95.4958 486.671 95.4698 486.388 95.3884C486.104 95.307 485.84 95.172 485.61 94.9909C485.38 94.8098 485.188 94.5862 485.047 94.333C484.905 94.0798 484.816 93.8018 484.785 93.515C484.753 93.2281 484.78 92.9381 484.863 92.6613C484.947 92.3845 485.085 92.1265 485.271 91.9019C485.456 91.6774 485.685 91.4907 485.945 91.3525L532.855 66.3682C533.379 66.0892 533.995 66.0247 534.567 66.189C535.14 66.3534 535.622 66.733 535.908 67.2444C536.194 67.7559 536.26 68.3572 536.092 68.9161C535.923 69.4751 535.534 69.9459 535.01 70.2249Z"
                  fill="#F2F2F2"
                />
                <path
                  d="M546.019 71.6669L490.572 102.54C490.044 102.833 489.424 102.901 488.847 102.728C488.271 102.555 487.785 102.155 487.497 101.617C487.209 101.079 487.143 100.446 487.312 99.8571C487.482 99.2686 487.873 98.773 488.401 98.4792L543.848 67.6065C544.376 67.3127 544.996 67.2449 545.573 67.4179C546.149 67.5909 546.635 67.9905 546.923 68.529C547.211 69.0674 547.277 69.7005 547.108 70.289C546.938 70.8774 546.547 71.3731 546.019 71.6669Z"
                  fill="#F2F2F2"
                />
                <path
                  d="M469.471 117.511C474.541 117.511 478.652 112.853 478.652 107.106C478.652 101.36 474.541 96.7017 469.471 96.7017C464.401 96.7017 460.291 101.36 460.291 107.106C460.291 112.853 464.401 117.511 469.471 117.511Z"
                  fill="#F2F2F2"
                />
                <path
                  d="M612.077 45.2908H506.803C503.234 45.2948 499.812 46.7263 497.288 49.2711C494.764 51.8159 493.344 55.2662 493.34 58.865V183.501C493.344 187.1 494.764 190.551 497.288 193.095C499.812 195.64 503.234 197.072 506.803 197.076H612.077C615.647 197.072 619.069 195.64 621.593 193.095C624.116 190.551 625.536 187.1 625.54 183.501V58.865C625.536 55.2662 624.116 51.8159 621.593 49.2711C619.069 46.7263 615.647 45.2948 612.077 45.2908Z"
                  fill="#6610F2"
                />
                <path
                  d="M612.25 50.187H506.631C504.081 50.1898 501.636 51.1952 499.833 52.9825C498.03 54.7698 497.016 57.1931 497.013 59.7208V182.646C497.016 185.173 498.03 187.597 499.833 189.384C501.636 191.171 504.081 192.177 506.631 192.179H612.25C614.8 192.176 617.245 191.171 619.048 189.384C620.851 187.597 621.865 185.173 621.868 182.646V59.7208C621.865 57.1932 620.851 54.7699 619.048 52.9826C617.245 51.1952 614.8 50.1899 612.25 50.187Z"
                  fill="white"
                />
                <path
                  d="M597.574 79.5648H558.027C557.428 79.5648 556.854 79.3713 556.43 79.027C556.007 78.6827 555.769 78.2156 555.769 77.7287C555.769 77.2417 556.007 76.7747 556.43 76.4304C556.854 76.086 557.428 75.8926 558.027 75.8926H597.574C597.871 75.8923 598.165 75.9396 598.439 76.0318C598.713 76.1239 598.963 76.2591 599.173 76.4296C599.383 76.6002 599.549 76.8027 599.663 77.0256C599.777 77.2485 599.835 77.4874 599.835 77.7287C599.835 77.97 599.777 78.2089 599.663 78.4318C599.549 78.6547 599.383 78.8572 599.173 79.0277C598.963 79.1983 598.713 79.3335 598.439 79.4256C598.165 79.5178 597.871 79.5651 597.574 79.5648Z"
                  fill="#6610F2"
                />
                <path
                  d="M606.176 88.1331H557.996C557.405 88.1331 556.839 87.8752 556.421 87.4161C556.003 86.9569 555.769 86.3342 555.769 85.685C555.769 85.0357 556.003 84.413 556.421 83.9539C556.839 83.4947 557.405 83.2368 557.996 83.2368H606.176C606.767 83.2368 607.334 83.4947 607.751 83.9539C608.169 84.413 608.404 85.0357 608.404 85.685C608.404 86.3342 608.169 86.9569 607.751 87.4161C607.334 87.8752 606.767 88.1331 606.176 88.1331Z"
                  fill="#6610F2"
                />
                <path
                  d="M548.585 67.324H512.765C512.483 67.324 512.213 67.4335 512.013 67.6282C511.814 67.823 511.702 68.0871 511.702 68.3625V95.6632C511.702 95.9386 511.814 96.2027 512.013 96.3975C512.213 96.5922 512.483 96.7016 512.765 96.7017H548.585C548.867 96.7016 549.137 96.5922 549.336 96.3975C549.536 96.2027 549.648 95.9386 549.648 95.6632V68.3625C549.648 68.0871 549.536 67.823 549.336 67.6282C549.137 67.4335 548.867 67.324 548.585 67.324Z"
                  fill="#E6E6E6"
                />
                <path
                  d="M522.718 83.66C522.733 86.1487 521.875 88.5531 520.314 90.399C518.77 92.2118 516.471 93.4139 514.151 92.9165C512.015 92.4585 510.279 90.4615 510.496 88.0455C510.532 87.5222 510.674 87.0136 510.912 86.5551C511.151 86.0966 511.48 85.6993 511.877 85.3908C512.274 85.0823 512.729 84.8701 513.21 84.769C513.691 84.6679 514.188 84.6803 514.664 84.8053C516.693 85.3686 517.502 88.4969 515.811 89.9653C515.405 90.3176 514.822 89.7014 515.232 89.3458C516.35 88.3751 516.004 86.2515 514.655 85.719C513.084 85.0989 511.42 86.4325 511.307 88.1503C511.173 90.1871 512.631 91.7209 514.42 92.0821C516.355 92.4727 518.274 91.4133 519.585 89.951C521.088 88.2529 521.917 85.9981 521.899 83.66C521.903 83.5464 521.947 83.4388 522.024 83.3599C522.1 83.2809 522.202 83.2368 522.309 83.2368C522.415 83.2368 522.517 83.2809 522.593 83.3599C522.67 83.4388 522.714 83.5464 522.718 83.66Z"
                  fill="#2F2E41"
                />
                <path
                  d="M530.675 89.3572C539.125 89.3572 545.976 82.5067 545.976 74.0563C545.976 65.6058 539.125 58.7554 530.675 58.7554C522.224 58.7554 515.374 65.6058 515.374 74.0563C515.374 82.5067 522.224 89.3572 530.675 89.3572Z"
                  fill="#6610F2"
                />
                <path
                  d="M530.082 80.7887L530.062 80.2134C531.377 80.1837 532.536 80.1165 533.407 79.5986C533.654 79.4434 533.857 79.2467 534.002 79.022C534.147 78.7972 534.231 78.5497 534.248 78.2961C534.264 78.1412 534.235 77.9855 534.164 77.8411C534.093 77.6967 533.983 77.5676 533.841 77.4636C533.263 77.0662 532.333 77.1948 531.655 77.4479L531.07 77.6661L532.191 70.9961L532.891 71.0742L531.938 76.7479C532.859 76.5275 533.712 76.6224 534.297 77.0243C534.522 77.1839 534.698 77.3835 534.812 77.6076C534.926 77.8318 534.975 78.0743 534.954 78.3164C534.934 78.657 534.822 78.9899 534.627 79.2916C534.431 79.5934 534.157 79.8567 533.824 80.0632C532.705 80.7288 531.251 80.762 530.082 80.7887Z"
                  fill="#2F2E41"
                />
                <path
                  d="M522.718 96.7018C523.835 96.1605 525.043 95.7365 526.308 95.4409C526.187 95.1132 526.189 94.7663 526.314 94.4394C526.482 94.0265 526.82 93.6661 527.278 93.412C527.736 93.158 528.29 93.0239 528.856 93.0297H532.488C533.055 93.0242 533.609 93.1586 534.068 93.413C534.528 93.6674 534.867 94.0281 535.036 94.4416C535.16 94.7677 535.162 95.114 535.041 95.4409C536.306 95.7368 537.514 96.1609 538.631 96.7018H522.718Z"
                  fill="#2F2E41"
                />
                <path
                  d="M548.47 68.493C548.221 68.1316 547.915 67.8331 547.569 67.6147C547.266 67.4248 546.929 67.3251 546.588 67.324C546.118 67.3309 545.662 67.5151 545.284 67.8503C544.246 68.7317 543.527 70.632 543.527 72.8323C543.527 75.5926 544.66 77.8816 546.131 78.2794C546.281 78.3197 546.434 78.3403 546.588 78.3406C548.273 78.3406 549.648 75.8711 549.648 72.8323C549.648 71.0696 549.186 69.4998 548.47 68.493Z"
                  fill="#3F3D56"
                />
                <path
                  d="M517.123 67.7187H517.121C516.78 67.4647 516.387 67.3282 515.986 67.324C515.644 67.3251 515.307 67.4248 515.004 67.6147C514.659 67.8331 514.353 68.1316 514.104 68.493L514.101 68.496C513.387 69.5028 512.926 71.0727 512.926 72.8323C512.926 75.207 513.762 77.2328 514.935 78.0071C515.256 78.223 515.618 78.3378 515.986 78.3406C516.068 78.3406 516.15 78.3345 516.231 78.3223H516.233C517.804 78.0958 519.046 75.7211 519.046 72.8323C519.046 70.5188 518.248 68.5327 517.123 67.7187Z"
                  fill="#3F3D56"
                />
                <path
                  d="M515.441 77.1165C515.507 77.1164 515.572 77.1003 515.631 77.0695C515.69 77.0387 515.741 76.9941 515.78 76.9393C515.819 76.8845 515.844 76.8212 515.854 76.7545C515.864 76.6878 515.858 76.6197 515.837 76.5558C515.038 74.1418 514.798 71.5732 515.135 69.0494C515.471 66.5257 516.376 64.1149 517.779 62.0044C519.182 59.8939 521.045 58.1406 523.223 56.8806C525.401 55.6206 527.836 54.888 530.338 54.7397C532.84 54.5913 535.342 55.0313 537.649 56.0253C539.956 57.0193 542.007 58.5406 543.642 60.471C545.277 62.4014 546.452 64.6889 547.075 67.1557C547.699 69.6225 547.754 72.2021 547.237 74.6941C547.214 74.8044 547.235 74.9193 547.295 75.0137C547.356 75.1081 547.451 75.1742 547.559 75.1974C547.668 75.2207 547.781 75.1992 547.874 75.1377C547.967 75.0762 548.032 74.9797 548.055 74.8694C548.599 72.2494 548.541 69.5371 547.886 66.9434C547.23 64.3498 545.995 61.9446 544.277 59.9149C542.558 57.8851 540.402 56.2855 537.976 55.2404C535.55 54.1952 532.919 53.7327 530.288 53.8887C527.658 54.0448 525.098 54.8151 522.808 56.14C520.518 57.4649 518.56 59.3086 517.085 61.5277C515.61 63.7469 514.659 66.2817 514.305 68.9352C513.951 71.5887 514.204 74.2894 515.045 76.8274C515.073 76.9116 515.126 76.9848 515.197 77.0367C515.268 77.0885 515.353 77.1165 515.441 77.1165Z"
                  fill="#3F3D56"
                />
                <path
                  d="M538.335 63.8354C538.879 64.6543 538.611 65.7578 538.038 66.4639C537.292 67.3826 536.103 67.4405 535.07 67.27C533.912 67.0787 532.683 66.48 531.509 66.8834C530.51 67.2273 529.796 68.2275 528.758 68.4787C527.836 68.7015 526.735 68.4066 526.412 67.3237C526.257 66.8033 527 66.5803 527.154 67.0979C527.363 67.7985 528.265 67.7845 528.782 67.5905C529.61 67.2795 530.249 66.523 531.063 66.1617C532.022 65.7357 533.064 65.928 534.041 66.1707C534.962 66.3994 536.022 66.7385 536.94 66.3113C537.618 65.9951 538.159 64.9992 537.67 64.264C537.377 63.8226 538.045 63.3985 538.335 63.8354Z"
                  fill="#2F2E41"
                />
                <path
                  d="M597.555 117.511H543.361C543.062 117.511 542.765 117.432 542.488 117.278C542.211 117.124 541.959 116.899 541.748 116.615C541.536 116.331 541.368 115.993 541.253 115.622C541.138 115.251 541.079 114.853 541.079 114.451C541.079 114.049 541.138 113.651 541.253 113.28C541.368 112.908 541.536 112.571 541.748 112.287C541.959 112.003 542.211 111.777 542.488 111.624C542.765 111.47 543.062 111.391 543.361 111.391H597.555C598.16 111.392 598.74 111.714 599.167 112.288C599.594 112.862 599.835 113.64 599.835 114.451C599.835 115.262 599.594 116.04 599.167 116.613C598.74 117.187 598.16 117.51 597.555 117.511Z"
                  fill="#E6E6E6"
                />
                <path
                  d="M606.147 123.631H543.335C543.039 123.632 542.746 123.568 542.472 123.446C542.198 123.323 541.95 123.142 541.74 122.915C541.531 122.688 541.364 122.418 541.251 122.12C541.137 121.823 541.079 121.505 541.079 121.183C541.079 120.861 541.137 120.543 541.251 120.246C541.364 119.948 541.531 119.678 541.74 119.451C541.95 119.224 542.198 119.043 542.472 118.92C542.746 118.798 543.039 118.735 543.335 118.735H606.147C606.443 118.735 606.736 118.798 607.01 118.92C607.284 119.043 607.533 119.224 607.742 119.451C607.952 119.678 608.118 119.948 608.231 120.246C608.345 120.543 608.403 120.861 608.403 121.183C608.403 121.505 608.345 121.823 608.231 122.12C608.118 122.418 607.952 122.688 607.742 122.915C607.533 123.142 607.284 123.323 607.01 123.446C606.736 123.568 606.443 123.632 606.147 123.631Z"
                  fill="#E6E6E6"
                />
                <path
                  d="M597.552 141.992H543.361C542.756 141.992 542.176 141.799 541.748 141.454C541.32 141.11 541.079 140.643 541.079 140.156C541.079 139.669 541.32 139.202 541.748 138.858C542.176 138.514 542.756 138.32 543.361 138.32H597.552C598.158 138.32 598.738 138.514 599.166 138.858C599.594 139.202 599.835 139.669 599.835 140.156C599.835 140.643 599.594 141.11 599.166 141.454C598.738 141.799 598.158 141.992 597.552 141.992Z"
                  fill="#E6E6E6"
                />
                <path
                  d="M606.149 150.561H543.333C542.735 150.561 542.162 150.367 541.739 150.023C541.317 149.679 541.079 149.212 541.079 148.725C541.079 148.238 541.317 147.771 541.739 147.426C542.162 147.082 542.735 146.889 543.333 146.889H606.149C606.747 146.889 607.32 147.082 607.743 147.426C608.166 147.771 608.403 148.238 608.403 148.725C608.403 149.212 608.166 149.679 607.743 150.023C607.32 150.367 606.747 150.561 606.149 150.561Z"
                  fill="#E6E6E6"
                />
                <path
                  d="M522.106 127.303C527.177 127.303 531.287 123.193 531.287 118.123C531.287 113.053 527.177 108.942 522.106 108.942C517.036 108.942 512.926 113.053 512.926 118.123C512.926 123.193 517.036 127.303 522.106 127.303Z"
                  fill="#E6E6E6"
                />
                <path
                  d="M522.106 154.233C527.177 154.233 531.287 150.123 531.287 145.053C531.287 139.982 527.177 135.872 522.106 135.872C517.036 135.872 512.926 139.982 512.926 145.053C512.926 150.123 517.036 154.233 522.106 154.233Z"
                  fill="#E6E6E6"
                />
                <path
                  d="M597.552 171.37H543.361C542.756 171.37 542.176 171.112 541.748 170.653C541.32 170.194 541.079 169.571 541.079 168.922C541.079 168.273 541.32 167.65 541.748 167.191C542.176 166.732 542.756 166.474 543.361 166.474H597.552C598.158 166.474 598.738 166.732 599.166 167.191C599.594 167.65 599.835 168.273 599.835 168.922C599.835 169.571 599.594 170.194 599.166 170.653C598.738 171.112 598.158 171.37 597.552 171.37Z"
                  fill="#E6E6E6"
                />
                <path
                  d="M606.149 178.714H543.333C542.735 178.714 542.162 178.456 541.739 177.997C541.317 177.538 541.079 176.916 541.079 176.266C541.079 175.617 541.317 174.994 541.739 174.535C542.162 174.076 542.735 173.818 543.333 173.818H606.149C606.747 173.818 607.32 174.076 607.743 174.535C608.166 174.994 608.403 175.617 608.403 176.266C608.403 176.916 608.166 177.538 607.743 177.997C607.32 178.456 606.747 178.714 606.149 178.714Z"
                  fill="#E6E6E6"
                />
                <path
                  d="M522.106 182.387C527.177 182.387 531.287 178.002 531.287 172.594C531.287 167.186 527.177 162.802 522.106 162.802C517.036 162.802 512.926 167.186 512.926 172.594C512.926 178.002 517.036 182.387 522.106 182.387Z"
                  fill="#E6E6E6"
                />
                <path
                  d="M429 130L417.844 132.98L426.003 141.151L429 130ZM257.461 175.488C258.012 175.521 258.485 175.101 258.518 174.549C258.551 173.998 258.131 173.524 257.58 173.492L257.461 175.488ZM262.688 173.746C262.136 173.723 261.671 174.153 261.648 174.704C261.626 175.256 262.055 175.722 262.607 175.744L262.688 173.746ZM267.753 175.907C268.305 175.92 268.763 175.483 268.776 174.931C268.789 174.379 268.352 173.921 267.8 173.908L267.753 175.907ZM272.893 173.988C272.341 173.984 271.89 174.428 271.885 174.98C271.881 175.532 272.325 175.984 272.877 175.988L272.893 173.988ZM278.007 175.993C278.559 175.99 279.004 175.539 279.001 174.987C278.997 174.435 278.547 173.99 277.994 173.993L278.007 175.993ZM283.099 173.926C282.547 173.937 282.108 174.394 282.119 174.946C282.13 175.498 282.587 175.937 283.139 175.926L283.099 173.926ZM288.271 175.789C288.823 175.77 289.256 175.308 289.237 174.756C289.219 174.204 288.756 173.771 288.204 173.79L288.271 175.789ZM293.302 173.586C292.75 173.611 292.324 174.079 292.35 174.631C292.375 175.183 292.844 175.609 293.395 175.583L293.302 173.586ZM298.512 175.311C299.063 175.278 299.484 174.805 299.451 174.253C299.418 173.702 298.944 173.282 298.393 173.315L298.512 175.311ZM303.482 172.977C302.931 173.017 302.517 173.496 302.557 174.047C302.597 174.598 303.076 175.012 303.627 174.971L303.482 172.977ZM308.74 174.564C309.29 174.516 309.698 174.032 309.65 173.481C309.603 172.931 309.118 172.524 308.568 172.571L308.74 174.564ZM313.65 172.097C313.101 172.152 312.7 172.642 312.755 173.192C312.81 173.741 313.3 174.142 313.85 174.087L313.65 172.097ZM318.955 173.54C319.503 173.477 319.897 172.982 319.835 172.433C319.772 171.884 319.276 171.49 318.728 171.553L318.955 173.54ZM323.798 170.938C323.25 171.008 322.863 171.509 322.933 172.057C323.004 172.605 323.505 172.992 324.053 172.921L323.798 170.938ZM329.138 172.229C329.685 172.151 330.064 171.644 329.986 171.097C329.907 170.55 329.401 170.171 328.854 170.249L329.138 172.229ZM333.895 169.486C333.35 169.573 332.978 170.086 333.065 170.631C333.152 171.177 333.664 171.548 334.21 171.461L333.895 169.486ZM339.272 170.615C339.816 170.519 340.18 170.001 340.084 169.457C339.989 168.913 339.471 168.549 338.927 168.645L339.272 170.615ZM343.944 167.722C343.402 167.826 343.047 168.35 343.151 168.893C343.256 169.435 343.78 169.79 344.322 169.685L343.944 167.722ZM349.357 168.671C349.897 168.557 350.243 168.027 350.129 167.486C350.015 166.946 349.485 166.6 348.945 166.714L349.357 168.671ZM353.924 165.618C353.386 165.742 353.05 166.278 353.173 166.816C353.297 167.355 353.834 167.691 354.372 167.567L353.924 165.618ZM359.367 166.37C359.903 166.236 360.229 165.693 360.095 165.157C359.961 164.621 359.418 164.295 358.882 164.429L359.367 166.37ZM363.815 163.143C363.282 163.288 362.968 163.837 363.112 164.37C363.257 164.903 363.807 165.218 364.34 165.073L363.815 163.143ZM369.284 163.673C369.814 163.517 370.117 162.96 369.961 162.431C369.804 161.901 369.248 161.598 368.719 161.755L369.284 163.673ZM373.587 160.258C373.061 160.427 372.771 160.99 372.94 161.516C373.108 162.042 373.671 162.331 374.197 162.163L373.587 160.258ZM379.071 160.538C379.593 160.357 379.869 159.787 379.688 159.265C379.506 158.744 378.937 158.468 378.415 158.649L379.071 160.538ZM383.205 156.916C382.688 157.111 382.427 157.687 382.622 158.204C382.816 158.721 383.393 158.982 383.91 158.787L383.205 156.916ZM388.702 156.905C389.213 156.696 389.458 156.112 389.248 155.601C389.039 155.09 388.455 154.845 387.944 155.054L388.702 156.905ZM392.624 153.057C392.119 153.282 391.892 153.873 392.117 154.377C392.341 154.882 392.932 155.109 393.437 154.884L392.624 153.057ZM398.107 152.715C398.604 152.474 398.811 151.876 398.571 151.379C398.33 150.882 397.732 150.675 397.235 150.916L398.107 152.715ZM401.766 148.621C401.278 148.879 401.091 149.484 401.35 149.973C401.608 150.461 402.213 150.647 402.701 150.389L401.766 148.621ZM407.208 147.895C407.686 147.618 407.849 147.006 407.572 146.528C407.296 146.051 406.684 145.887 406.206 146.164L407.208 147.895ZM410.545 143.532C410.079 143.828 409.941 144.446 410.238 144.913C410.534 145.379 411.152 145.516 411.618 145.22L410.545 143.532ZM415.914 142.353C416.367 142.036 416.476 141.413 416.16 140.961C415.843 140.508 415.219 140.399 414.767 140.715L415.914 142.353ZM418.847 137.707C418.411 138.046 418.332 138.674 418.67 139.11C419.009 139.547 419.637 139.626 420.074 139.287L418.847 137.707ZM424.074 136.012C424.492 135.651 424.538 135.02 424.176 134.602C423.815 134.184 423.184 134.138 422.766 134.499L424.074 136.012ZM426.499 131.085C426.102 131.469 426.092 132.102 426.476 132.499C426.861 132.895 427.494 132.905 427.89 132.521L426.499 131.085ZM254.93 175.324C255.753 175.382 256.597 175.437 257.461 175.488L257.58 173.492C256.723 173.44 255.886 173.386 255.07 173.329L254.93 175.324ZM262.607 175.744C264.267 175.811 265.984 175.866 267.753 175.907L267.8 173.908C266.042 173.867 264.336 173.812 262.688 173.746L262.607 175.744ZM272.877 175.988C274.549 176.002 276.26 176.004 278.007 175.993L277.994 173.993C276.257 174.004 274.556 174.002 272.893 173.988L272.877 175.988ZM283.139 175.926C284.822 175.892 286.534 175.847 288.271 175.789L288.204 173.79C286.476 173.847 284.774 173.893 283.099 173.926L283.139 175.926ZM293.395 175.583C295.081 175.505 296.788 175.414 298.512 175.311L298.393 173.315C296.677 173.417 294.979 173.507 293.302 173.586L293.395 175.583ZM303.627 174.971C305.317 174.848 307.022 174.712 308.74 174.564L308.568 172.571C306.859 172.719 305.163 172.854 303.482 172.977L303.627 174.971ZM313.85 174.087C315.542 173.918 317.244 173.735 318.955 173.54L318.728 171.553C317.026 171.747 315.333 171.928 313.65 172.097L313.85 174.087ZM324.053 172.921C325.742 172.704 327.438 172.473 329.138 172.229L328.854 170.249C327.164 170.492 325.478 170.722 323.798 170.938L324.053 172.921ZM334.21 171.461C335.895 171.193 337.583 170.911 339.272 170.615L338.927 168.645C337.248 168.939 335.57 169.22 333.895 169.486L334.21 171.461ZM344.322 169.685C346.002 169.362 347.68 169.024 349.357 168.671L348.945 166.714C347.28 167.065 345.612 167.4 343.944 167.722L344.322 169.685ZM354.372 167.567C356.041 167.184 357.707 166.785 359.367 166.37L358.882 164.429C357.235 164.841 355.581 165.237 353.924 165.618L354.372 167.567ZM364.34 165.073C365.995 164.623 367.644 164.157 369.284 163.673L368.719 161.755C367.093 162.234 365.458 162.697 363.815 163.143L364.34 165.073ZM374.197 162.163C375.832 161.64 377.458 161.098 379.071 160.538L378.415 158.649C376.818 159.203 375.208 159.74 373.587 160.258L374.197 162.163ZM383.91 158.787C385.522 158.18 387.12 157.553 388.702 156.905L387.944 155.054C386.38 155.694 384.8 156.315 383.205 156.916L383.91 158.787ZM393.437 154.884C395.013 154.183 396.57 153.46 398.107 152.715L397.235 150.916C395.718 151.651 394.18 152.364 392.624 153.057L393.437 154.884ZM402.701 150.389C404.227 149.582 405.73 148.75 407.208 147.895L406.206 146.164C404.751 147.006 403.27 147.825 401.766 148.621L402.701 150.389ZM411.618 145.22C413.079 144.291 414.512 143.336 415.914 142.353L414.767 140.715C413.39 141.68 411.982 142.619 410.545 143.532L411.618 145.22ZM420.074 139.287C421.442 138.225 422.777 137.134 424.074 136.012L422.766 134.499C421.496 135.597 420.189 136.666 418.847 137.707L420.074 139.287Z"
                  fill="#6610F2"
                />
              </svg>