<svg width="21" height="21" viewBox="0 0 21 21" fill="none" xmlns="http://www.w3.org/2000/svg">
<g id="Layer 8">
<g id="message-circle">
<path id="Vector" d="M10.0234 11.022C10.5757 11.022 11.0234 10.5743 11.0234 10.022C11.0234 9.46969 10.5757 9.02197 10.0234 9.02197C9.47115 9.02197 9.02344 9.46969 9.02344 10.022C9.02344 10.5743 9.47115 11.022 10.0234 11.022Z" fill="black"/>
<path id="Vector_2" d="M14.0234 11.022C14.5757 11.022 15.0234 10.5743 15.0234 10.022C15.0234 9.46969 14.5757 9.02197 14.0234 9.02197C13.4712 9.02197 13.0234 9.46969 13.0234 10.022C13.0234 10.5743 13.4712 11.022 14.0234 11.022Z" fill="black"/>
<path id="Vector_3" d="M6.02344 11.022C6.57572 11.022 7.02344 10.5743 7.02344 10.022C7.02344 9.46969 6.57572 9.02197 6.02344 9.02197C5.47115 9.02197 5.02344 9.46969 5.02344 10.022C5.02344 10.5743 5.47115 11.022 6.02344 11.022Z" fill="black"/>
<path id="Vector_4" d="M17.094 2.952C15.4533 1.3005 13.2877 0.273208 10.9707 0.0472367C8.65365 -0.178734 6.33039 0.410773 4.40143 1.71413C2.47247 3.01748 1.05868 4.953 0.403808 7.18701C-0.251063 9.42101 -0.105981 11.8135 0.814044 13.952C0.909934 14.1508 0.941397 14.3745 0.904044 14.592L0.024044 18.822C-0.00985986 18.9842 -0.00293664 19.1522 0.0441915 19.3111C0.0913197 19.4699 0.177176 19.6146 0.294044 19.732C0.389848 19.8271 0.503918 19.9018 0.629378 19.9517C0.754838 20.0015 0.88909 20.0254 1.02404 20.022H1.22404L5.50404 19.162C5.72157 19.1358 5.94216 19.1669 6.14404 19.252C8.28254 20.172 10.675 20.3171 12.909 19.6622C15.143 19.0074 17.0786 17.5936 18.3819 15.6646C19.6853 13.7356 20.2748 11.4124 20.0488 9.09537C19.8228 6.77836 18.7955 4.61278 17.144 2.972L17.094 2.952ZM17.924 11.312C17.7285 12.506 17.2647 13.6401 16.5676 14.6289C15.8704 15.6177 14.9581 16.4356 13.8992 17.0209C12.8403 17.6061 11.6624 17.9436 10.4543 18.0079C9.24609 18.0722 8.03907 17.8616 6.92404 17.392C6.52859 17.2238 6.10378 17.1354 5.67404 17.132C5.48632 17.1333 5.29903 17.15 5.11404 17.182L2.29404 17.752L2.86404 14.932C2.97757 14.3213 2.90439 13.6905 2.65404 13.122C2.18444 12.007 1.97385 10.7999 2.03814 9.59177C2.10242 8.3836 2.43991 7.20574 3.02519 6.14685C3.61047 5.08795 4.4283 4.17559 5.41714 3.47844C6.40598 2.7813 7.54006 2.31751 8.73404 2.122C9.98732 1.91631 11.2716 2.01197 12.4805 2.40106C13.6895 2.79014 14.7885 3.46148 15.6865 4.35953C16.5846 5.25758 17.2559 6.35655 17.645 7.56552C18.0341 8.77449 18.1297 10.0587 17.924 11.312Z" fill="black"/>
</g>
</g>
</svg>
