<svg width="78" height="78" viewBox="0 0 78 78" fill="none" xmlns="http://www.w3.org/2000/svg">
<path d="M39 78C60.5391 78 78 60.5391 78 39C78 17.4609 60.5391 0 39 0C17.4609 0 0 17.4609 0 39C0 60.5391 17.4609 78 39 78Z" fill="url(#paint0_linear_320_18)"/>
<path d="M39 15C33.9626 15.0057 29.1332 17.0305 25.5712 20.63C22.0093 24.2296 20.0057 29.11 20 34.2005C20 42.0127 25.6121 48.5001 31.5568 55.3667C33.4378 57.5411 35.3853 59.79 37.119 62.0652C37.3409 62.3561 37.6258 62.5916 37.9519 62.7537C38.278 62.9157 38.6366 63 39 63C39.3634 63 39.722 62.9157 40.0481 62.7537C40.3742 62.5916 40.6591 62.3561 40.881 62.0652C42.6147 59.79 44.5623 57.5411 46.4432 55.3667C52.3879 48.5001 58 42.0127 58 34.2005C57.9943 29.11 55.9907 24.2296 52.4288 20.63C48.8668 17.0305 44.0374 15.0057 39 15ZM39 41.4007C37.5908 41.4007 36.2133 40.9784 35.0416 40.1872C33.8699 39.3961 32.9566 38.2716 32.4174 36.9559C31.8781 35.6402 31.737 34.1925 32.0119 32.7958C32.2868 31.3991 32.9654 30.1162 33.9619 29.1092C34.9583 28.1022 36.2279 27.4165 37.61 27.1387C38.9921 26.8608 40.4247 27.0034 41.7266 27.5484C43.0285 28.0934 44.1413 29.0162 44.9242 30.2003C45.7071 31.3844 46.125 32.7764 46.125 34.2005C46.125 36.1101 45.3743 37.9415 44.0381 39.2918C42.7019 40.6421 40.8897 41.4007 39 41.4007Z" fill="white"/>
<defs>
<linearGradient id="paint0_linear_320_18" x1="78" y1="93" x2="78" y2="-18" gradientUnits="userSpaceOnUse">
<stop stop-color="#1D6FF2"/>
<stop offset="1" stop-color="#B6CEF4"/>
</linearGradient>
</defs>
</svg>
