<svg width="10" height="10" viewBox="0 0 10 10" fill="none" xmlns="http://www.w3.org/2000/svg">
<g id="Page-1">
<g id="Asset-1">
<g id="Lager_2">
<path id="Shape" d="M9.38125 6.25H9.36875C9.20465 6.25 9.04727 6.31519 8.93123 6.43123C8.81519 6.54727 8.75 6.70465 8.75 6.86875V8.4375C8.75 8.52038 8.71708 8.59987 8.65847 8.65847C8.59987 8.71708 8.52038 8.75 8.4375 8.75H1.5625C1.47962 8.75 1.40013 8.71708 1.34153 8.65847C1.28292 8.59987 1.25 8.52038 1.25 8.4375V1.5625C1.25 1.47962 1.28292 1.40013 1.34153 1.34153C1.40013 1.28292 1.47962 1.25 1.5625 1.25H4.38125C4.54535 1.25 4.70273 1.18481 4.81877 1.06877C4.93481 0.952734 5 0.795353 5 0.63125V0.61875C5 0.454647 4.93481 0.297266 4.81877 0.181228C4.70273 0.0651895 4.54535 0 4.38125 0H0.61875C0.454647 0 0.297266 0.0651895 0.181228 0.181228C0.0651895 0.297266 0 0.454647 0 0.61875L0 9.38125C0 9.54535 0.0651895 9.70273 0.181228 9.81877C0.297266 9.93481 0.454647 10 0.61875 10H9.38125C9.54535 10 9.70273 9.93481 9.81877 9.81877C9.93481 9.70273 10 9.54535 10 9.38125L9.99375 9.375H10V6.86875C10 6.70465 9.93481 6.54727 9.81877 6.43123C9.70273 6.31519 9.54535 6.25 9.38125 6.25Z" fill="#6610F2"/>
<path id="Shape_2" d="M7.79505 1.78486C6.02036 1.91143 4.65442 2.49393 3.72848 3.52268C3.00836 4.33318 2.58251 5.36279 2.51973 6.44518C2.50936 6.53798 2.51868 6.63192 2.54708 6.72088C2.57548 6.80984 2.62232 6.89181 2.68454 6.96143C2.74677 7.03106 2.82298 7.08678 2.9082 7.12496C2.99342 7.16313 3.08573 7.18291 3.17911 7.18299L3.21036 7.17986C3.35259 7.16431 3.4848 7.09915 3.58377 6.99583C3.68275 6.89251 3.74217 6.75763 3.75161 6.61486C3.79935 5.77938 4.12104 4.9829 4.66692 4.34861C5.35661 3.58861 6.41473 3.15174 7.81255 3.03924V3.12486H7.79505L7.78161 3.20861L7.0613 3.9358C6.94494 4.05375 6.8797 4.21277 6.8797 4.37846C6.8797 4.54414 6.94494 4.70316 7.0613 4.82111C7.11857 4.87922 7.18683 4.92536 7.2621 4.95686C7.33736 4.98835 7.41814 5.00457 7.49973 5.00457C7.58132 5.00457 7.6621 4.98835 7.73737 4.95686C7.81264 4.92536 7.88089 4.87922 7.93817 4.82111L9.81817 2.92299C9.93462 2.80502 9.99992 2.64594 9.99992 2.48018C9.99992 2.31442 9.93462 2.15533 9.81817 2.03736L7.94317 0.183301C7.8859 0.125241 7.81766 0.079138 7.74242 0.0476711C7.66718 0.0162041 7.58644 0 7.50489 0C7.42334 0 7.34259 0.0162041 7.26735 0.0476711C7.19212 0.079138 7.12388 0.125241 7.06661 0.183301C6.95008 0.301226 6.88473 0.460329 6.88473 0.626114C6.88473 0.791899 6.95008 0.951002 7.06661 1.06893L7.79505 1.78486Z" fill="#6610F2"/>
</g>
</g>
</g>
</svg>
