<svg width="525" height="584" viewBox="0 0 525 584" fill="none" xmlns="http://www.w3.org/2000/svg">
<g clip-path="url(#clip0_826_282)">
<path d="M265.165 395.918C367.048 395.918 449.64 313.353 449.64 211.504C449.64 109.655 367.048 27.0901 265.165 27.0901C163.283 27.0901 80.6904 109.655 80.6904 211.504C80.6904 313.353 163.283 395.918 265.165 395.918Z" fill="#6610F2"/>
<path d="M68.4614 457.797L68.8628 457.965C69.4103 458.186 70.0107 458.239 70.5886 458.12C71.1665 458 71.6962 457.713 72.1113 457.293L142.291 386.549C142.707 386.131 142.991 385.598 143.105 385.018C143.22 384.439 143.16 383.838 142.935 383.293L142.767 382.891L68.4614 457.797Z" fill="#00CCBE"/>
<path d="M61.3296 454.186C61.8899 454.521 62.5464 454.66 63.1945 454.578C63.8426 454.497 64.4447 454.201 64.9048 453.738L138.65 379.364C139.109 378.901 139.4 378.297 139.476 377.649C139.552 377.001 139.409 376.347 139.07 375.79L61.3296 454.186Z" fill="#00CCBE"/>
<path d="M54.9917 449.791C55.5798 450.257 56.1679 450.724 56.7747 451.172L136.046 371.254C135.598 370.648 135.113 370.06 134.655 369.481L54.9917 449.791Z" fill="#00CCBE"/>
<path d="M85.7124 461.987L87.374 462.099C87.7918 462.119 88.209 462.05 88.5983 461.897C88.9876 461.745 89.3402 461.511 89.633 461.213L146.37 404.065C146.667 403.77 146.897 403.415 147.047 403.024C147.196 402.633 147.262 402.215 147.238 401.798C147.207 401.244 147.164 400.69 147.108 400.136L85.7124 461.987Z" fill="#00CCBE"/>
<path d="M110.552 458.534C112.313 457.869 114.039 457.115 115.724 456.276C116.025 456.126 116.299 455.927 116.536 455.688L141.068 430.959C141.308 430.72 141.506 430.442 141.656 430.138C142.483 428.447 143.224 426.715 143.878 424.949L110.552 458.534Z" fill="#00CCBE"/>
<path d="M76.5454 460.475L77.4789 460.709C77.9778 460.82 78.4968 460.802 78.9868 460.656C79.4768 460.511 79.9217 460.243 80.2793 459.878L144.979 394.649C145.339 394.289 145.602 393.843 145.742 393.353C145.883 392.863 145.896 392.346 145.782 391.85C145.707 391.532 145.629 391.221 145.548 390.917L76.5454 460.475Z" fill="#00CCBE"/>
<path d="M96.5312 461.866C97.4647 461.773 98.3515 461.642 99.2477 461.502C99.8757 461.398 100.454 461.098 100.9 460.643L145.894 415.263C146.343 414.812 146.637 414.231 146.734 413.602C146.874 412.669 146.986 411.801 147.079 410.886L96.5312 461.866Z" fill="#00CCBE"/>
<path d="M44.4619 438.817C44.91 439.439 45.3674 440.039 45.8341 440.618L125.395 360.411C124.773 359.951 124.169 359.5 123.584 359.058L44.4619 438.817Z" fill="#00CCBE"/>
<path d="M35.155 394.229C34.7148 394.668 34.4213 395.232 34.3149 395.844C34.1593 396.771 34.0286 397.704 33.9229 398.643L83.3228 348.849C82.3831 348.967 81.4496 349.107 80.5223 349.269C79.9121 349.379 79.3511 349.676 78.9167 350.118L35.155 394.229Z" fill="#00CCBE"/>
<path d="M40.7558 377.805C40.5409 378.02 40.3586 378.266 40.2143 378.533C39.2423 380.351 38.3698 382.22 37.6006 384.132L68.8536 352.647C66.9397 353.431 65.07 354.319 63.2527 355.307C62.9883 355.451 62.7461 355.634 62.5339 355.848L40.7558 377.805Z" fill="#00CCBE"/>
<path d="M34.4737 405.717C34.1832 406.007 33.956 406.354 33.8066 406.736C33.6572 407.118 33.5887 407.528 33.6055 407.938C33.6055 408.516 33.6397 409.092 33.7082 409.664L94.3379 348.541L92.611 348.448C92.1975 348.441 91.7872 348.52 91.4062 348.681C91.0252 348.841 90.682 349.08 90.3986 349.381L34.4737 405.717Z" fill="#00CCBE"/>
<path d="M38.3384 423.41C37.9242 423.82 37.6397 424.343 37.5202 424.914C37.4007 425.485 37.4515 426.078 37.6662 426.62L37.8529 427.077L111.775 352.554L111.318 352.367C110.774 352.159 110.181 352.115 109.613 352.239C109.044 352.363 108.524 352.651 108.116 353.067L38.3384 423.41Z" fill="#00CCBE"/>
<path d="M41.8668 430.642C41.4106 431.103 41.12 431.701 41.0406 432.345C40.9612 432.988 41.0975 433.64 41.428 434.197L118.963 356.035C118.389 355.702 117.722 355.57 117.065 355.658C116.408 355.746 115.798 356.049 115.332 356.52L41.8668 430.642Z" fill="#00CCBE"/>
<path d="M129.474 363.938L49.3721 444.658C49.8886 445.199 50.4145 445.728 50.9497 446.245L131.07 365.469C130.548 364.94 130.016 364.43 129.474 363.938Z" fill="#00CCBE"/>
<path d="M35.7711 415.198C35.4092 415.557 35.1448 416.003 35.0027 416.492C34.8607 416.982 34.8456 417.5 34.959 417.997C35.0337 418.327 35.1114 418.657 35.1923 418.986L103.617 349.941L102.618 349.717C102.119 349.606 101.6 349.624 101.11 349.769C100.62 349.914 100.175 350.182 99.8174 350.547L35.7711 415.198Z" fill="#00CCBE"/>
<path d="M393.902 410.047C403.006 410.047 410.387 402.668 410.387 393.567C410.387 384.465 403.006 377.087 393.902 377.087C384.797 377.087 377.417 384.465 377.417 393.567C377.417 402.668 384.797 410.047 393.902 410.047Z" fill="#FFE9E9"/>
<path d="M340.525 130.673H102.665V486.95H340.525V130.673Z" fill="#F05A58"/>
<path d="M353.09 116.554H115.229V472.831H353.09V116.554Z" fill="white"/>
<path d="M225.128 348.047H152.12V354.327H225.128V348.047Z" fill="#00CCBE"/>
<path d="M327.96 382.779H152.12V389.06H327.96V382.779Z" fill="#94A3C0"/>
<path d="M229.637 399.651H152.12V405.931H229.637V399.651Z" fill="#94A3C0"/>
<path d="M178.808 360.607H152.12V366.887H178.808V360.607Z" fill="#00CCBE"/>
<path d="M326.42 133.817H141.88C139.514 133.817 137.595 135.735 137.595 138.101V331.996C137.595 334.361 139.514 336.279 141.88 336.279H326.42C328.786 336.279 330.705 334.361 330.705 331.996V138.101C330.705 135.735 328.786 133.817 326.42 133.817Z" fill="#00CCBE"/>
<mask id="mask0_826_282" style="mask-type:luminance" maskUnits="userSpaceOnUse" x="137" y="133" width="194" height="204">
<path d="M330.705 133.817H137.595V336.279H330.705V133.817Z" fill="white"/>
</mask>
<g mask="url(#mask0_826_282)">
<path d="M323.564 355.325C322.163 342.802 317.431 302.984 312.773 294.725C307.237 284.889 255.214 263.053 255.214 263.053L232.913 277.209L210.51 263.212C210.51 263.212 158.608 285.337 153.128 295.201C148.517 303.487 144.008 343.334 142.673 355.857L323.564 355.325Z" fill="#2A3157"/>
<path d="M221.254 269.903L210.528 263.174L189.543 307.192L207.028 326.089L196.461 342.037L211.62 355.643L226.705 355.596L221.254 269.903Z" fill="#505E83"/>
<path d="M246.206 269.828L256.894 263.043L278.131 306.949L260.74 325.939L271.401 341.831L256.316 355.512L241.23 355.558L246.206 269.828Z" fill="#505E83"/>
<path d="M254.393 218.634C254.393 218.634 249.175 249.326 254.393 270.537C254.393 270.537 248.306 276.043 234.79 285.085L231.056 285.944C223.926 281.343 217.069 276.332 210.519 270.938C213.87 249.615 210.706 218.746 210.706 218.746" fill="#DC6457"/>
<path d="M214.374 164.379C214.374 164.379 257.66 137.914 274.705 152.313C291.75 166.712 269.282 188.875 269.282 188.875C269.282 188.875 276.087 190.554 276.525 196.079C276.964 201.603 265.94 211.01 265.94 211.01L197.506 211.196C197.506 211.196 185.968 190.834 187.238 181.055C188.507 171.275 197.011 181.456 197.011 181.456C197.011 181.456 206.346 159.33 210.556 159.321C214.766 159.312 214.374 164.379 214.374 164.379Z" fill="#5D1111"/>
<path d="M263.419 212.764C263.419 212.764 266.939 208.266 271.438 211.14C275.937 214.015 270.504 231.987 263.466 229.44C256.428 226.892 263.419 212.764 263.419 212.764Z" fill="#EA5764"/>
<path d="M201.137 212.932C201.137 212.932 197.6 208.453 193.109 211.355C188.619 214.257 194.164 232.193 201.184 229.561C208.204 226.93 201.137 212.932 201.137 212.932Z" fill="#EA5764"/>
<path d="M232.773 162.979C232.773 162.979 255.615 165.247 262.318 181.54C269.02 197.833 267.209 229.692 260.572 239.033C253.935 248.374 245.076 255.69 232.717 256.455C220.348 255.709 211.443 248.486 204.759 239.182C198.076 229.878 196.078 198.029 202.696 181.699C209.315 165.368 232.138 162.97 232.138 162.97L232.773 162.979Z" fill="#F98879"/>
<path d="M230.691 228.236C233.088 229.085 235.713 229.022 238.066 228.059C237.572 229.289 236.668 230.31 235.508 230.952C233.753 231.754 230.859 230.494 230.691 228.236Z" fill="#EA5764"/>
<path d="M269.272 188.875C269.272 188.875 245.935 205.084 228.927 201.314C211.919 197.544 224.624 181.353 224.624 181.353L204.265 197.133C204.265 197.133 208.549 207.743 198.365 215.843C198.365 215.843 195.779 201.846 197.432 191.581C199.084 181.316 205.03 171.984 209.268 168.606C213.506 165.228 229.217 156.652 239.42 157.903C249.623 159.153 270.477 164.239 269.272 188.875Z" fill="#5D1111"/>
<path d="M232.913 277.2L210.51 263.202L208.391 264.135L219.658 355.661L245.795 355.587L256.586 263.706L255.158 263.1L232.913 277.2Z" fill="#F9FBFC"/>
<path d="M230.803 286.616L225.529 298.374L233.884 302.526L240.689 296.815L235.35 286.224L230.803 286.616Z" fill="#FF5776"/>
<path d="M224.941 355.605L244.311 355.549L237.086 295.313L230.841 298.738L224.941 355.605Z" fill="#FF5776"/>
</g>
<path d="M162.697 424.147L165.226 431.967C165.285 432.167 165.408 432.342 165.577 432.464C165.747 432.586 165.952 432.647 166.16 432.639H174.384C174.604 432.603 174.829 432.648 175.019 432.764C175.21 432.88 175.352 433.06 175.421 433.272C175.49 433.484 175.48 433.714 175.394 433.919C175.309 434.125 175.152 434.293 174.953 434.393L168.298 439.227C168.127 439.343 168 439.512 167.936 439.708C167.872 439.904 167.874 440.115 167.943 440.31L170.482 448.13C170.583 448.328 170.611 448.556 170.559 448.772C170.507 448.989 170.379 449.18 170.199 449.31C170.019 449.441 169.797 449.503 169.575 449.485C169.353 449.467 169.145 449.37 168.988 449.212L162.333 444.378C162.169 444.253 161.969 444.185 161.763 444.185C161.557 444.185 161.357 444.253 161.194 444.378L154.538 449.212C154.381 449.37 154.173 449.467 153.951 449.485C153.729 449.503 153.508 449.441 153.327 449.31C153.147 449.18 153.02 448.989 152.968 448.772C152.916 448.556 152.943 448.328 153.044 448.13L155.584 440.31C155.652 440.115 155.655 439.904 155.591 439.708C155.526 439.512 155.399 439.343 155.229 439.227L148.573 434.393C148.374 434.293 148.218 434.125 148.132 433.919C148.046 433.714 148.037 433.484 148.106 433.272C148.174 433.06 148.317 432.88 148.507 432.764C148.697 432.648 148.923 432.603 149.143 432.639H157.366C157.575 432.647 157.78 432.586 157.949 432.464C158.118 432.342 158.242 432.167 158.3 431.967L160.839 424.147C160.862 423.917 160.97 423.703 161.142 423.548C161.313 423.393 161.536 423.307 161.768 423.307C161.999 423.307 162.222 423.393 162.394 423.548C162.566 423.703 162.674 423.917 162.697 424.147Z" fill="#FDB913"/>
<path d="M200.456 424.147L202.995 431.967C203.053 432.167 203.177 432.342 203.346 432.464C203.515 432.586 203.72 432.647 203.929 432.639H212.152C212.372 432.603 212.598 432.648 212.788 432.764C212.978 432.88 213.121 433.06 213.189 433.272C213.258 433.484 213.249 433.714 213.163 433.919C213.077 434.125 212.921 434.293 212.722 434.393L206.066 439.227C205.896 439.343 205.769 439.512 205.704 439.708C205.64 439.904 205.643 440.115 205.711 440.31L208.251 448.13C208.352 448.328 208.379 448.556 208.327 448.772C208.275 448.989 208.148 449.18 207.967 449.31C207.787 449.441 207.566 449.503 207.344 449.485C207.122 449.467 206.914 449.37 206.757 449.212L200.101 444.378C199.938 444.253 199.738 444.185 199.532 444.185C199.326 444.185 199.126 444.253 198.962 444.378L192.297 449.212C192.14 449.37 191.932 449.467 191.71 449.485C191.488 449.503 191.267 449.441 191.087 449.31C190.906 449.18 190.779 448.989 190.727 448.772C190.675 448.556 190.702 448.328 190.804 448.13L193.343 440.31C193.412 440.115 193.414 439.904 193.35 439.708C193.286 439.512 193.158 439.343 192.988 439.227L186.332 434.393C186.133 434.293 185.977 434.125 185.891 433.919C185.805 433.714 185.796 433.484 185.865 433.272C185.934 433.06 186.076 432.88 186.266 432.764C186.456 432.648 186.682 432.603 186.902 432.639H195.126C195.334 432.647 195.539 432.586 195.708 432.464C195.877 432.342 196.001 432.167 196.059 431.967L198.598 424.147C198.621 423.917 198.729 423.703 198.901 423.548C199.073 423.393 199.296 423.307 199.527 423.307C199.759 423.307 199.982 423.393 200.153 423.548C200.325 423.703 200.433 423.917 200.456 424.147Z" fill="#FDB913"/>
<path d="M238.216 424.147L240.755 431.967C240.813 432.167 240.936 432.342 241.106 432.464C241.275 432.586 241.48 432.647 241.688 432.639H249.912C250.132 432.603 250.358 432.648 250.548 432.764C250.738 432.88 250.88 433.06 250.949 433.272C251.018 433.484 251.009 433.714 250.923 433.919C250.837 434.125 250.681 434.293 250.482 434.393L243.826 439.227C243.656 439.343 243.528 439.512 243.464 439.708C243.4 439.904 243.402 440.115 243.471 440.31L246.01 448.13C246.112 448.328 246.139 448.556 246.087 448.772C246.035 448.989 245.908 449.18 245.727 449.31C245.547 449.441 245.326 449.503 245.104 449.485C244.882 449.467 244.674 449.37 244.517 449.212L237.861 444.378C237.698 444.253 237.497 444.185 237.292 444.185C237.086 444.185 236.885 444.253 236.722 444.378L230.066 449.212C229.909 449.37 229.701 449.467 229.479 449.485C229.257 449.503 229.036 449.441 228.856 449.31C228.675 449.18 228.548 448.989 228.496 448.772C228.444 448.556 228.471 448.328 228.573 448.13L231.112 440.31C231.181 440.115 231.183 439.904 231.119 439.708C231.055 439.512 230.928 439.343 230.757 439.227L224.101 434.393C223.902 434.293 223.746 434.125 223.66 433.919C223.574 433.714 223.565 433.484 223.634 433.272C223.703 433.06 223.845 432.88 224.035 432.764C224.225 432.648 224.451 432.603 224.671 432.639H232.895C233.103 432.647 233.308 432.586 233.477 432.464C233.647 432.342 233.77 432.167 233.828 431.967L236.367 424.147C236.399 423.925 236.51 423.721 236.68 423.574C236.85 423.427 237.067 423.345 237.292 423.345C237.516 423.345 237.733 423.427 237.903 423.574C238.073 423.721 238.184 423.925 238.216 424.147Z" fill="#FDB913"/>
<path d="M275.975 424.147L278.514 431.967C278.572 432.167 278.696 432.342 278.865 432.464C279.034 432.586 279.239 432.647 279.447 432.639H287.671C287.891 432.603 288.117 432.648 288.307 432.764C288.497 432.88 288.64 433.06 288.708 433.272C288.777 433.484 288.768 433.714 288.682 433.919C288.596 434.125 288.44 434.293 288.241 434.393L281.585 439.227C281.415 439.343 281.288 439.512 281.223 439.708C281.159 439.904 281.162 440.115 281.23 440.31L283.769 448.13C283.871 448.328 283.898 448.556 283.846 448.772C283.794 448.989 283.667 449.18 283.486 449.31C283.306 449.441 283.085 449.503 282.863 449.485C282.641 449.467 282.433 449.37 282.276 449.212L275.62 444.378C275.457 444.253 275.257 444.185 275.051 444.185C274.845 444.185 274.645 444.253 274.481 444.378L267.826 449.212C267.669 449.37 267.461 449.467 267.239 449.485C267.017 449.503 266.795 449.441 266.615 449.31C266.435 449.18 266.307 448.989 266.255 448.772C266.203 448.556 266.231 448.328 266.332 448.13L268.871 440.31C268.94 440.115 268.942 439.904 268.878 439.708C268.814 439.512 268.687 439.343 268.516 439.227L261.861 434.393C261.662 434.293 261.505 434.125 261.419 433.919C261.334 433.714 261.324 433.484 261.393 433.272C261.462 433.06 261.604 432.88 261.794 432.764C261.985 432.648 262.21 432.603 262.43 432.639H270.71C270.918 432.647 271.123 432.586 271.293 432.464C271.462 432.342 271.585 432.167 271.644 431.967L274.183 424.147C274.239 423.953 274.357 423.783 274.519 423.662C274.68 423.541 274.877 423.475 275.079 423.475C275.281 423.475 275.477 423.541 275.639 423.662C275.8 423.783 275.918 423.953 275.975 424.147Z" fill="#FDB913"/>
<path d="M313.734 424.147L316.273 431.967C316.331 432.167 316.455 432.342 316.624 432.464C316.793 432.585 316.998 432.647 317.207 432.639H325.431C325.651 432.603 325.876 432.648 326.066 432.764C326.256 432.88 326.399 433.06 326.467 433.272C326.536 433.484 326.527 433.713 326.441 433.919C326.355 434.125 326.199 434.293 326 434.393L319.344 439.227C319.174 439.343 319.047 439.512 318.983 439.708C318.918 439.904 318.921 440.115 318.99 440.31L321.529 448.13C321.63 448.328 321.657 448.556 321.605 448.772C321.554 448.989 321.426 449.18 321.246 449.31C321.065 449.441 320.844 449.503 320.622 449.485C320.4 449.467 320.192 449.37 320.035 449.212L313.379 444.378C313.216 444.253 313.016 444.184 312.81 444.184C312.604 444.184 312.404 444.253 312.24 444.378L305.585 449.212C305.428 449.37 305.22 449.467 304.998 449.485C304.776 449.503 304.555 449.441 304.374 449.31C304.194 449.18 304.066 448.989 304.014 448.772C303.962 448.556 303.99 448.328 304.091 448.13L306.63 440.31C306.699 440.115 306.701 439.904 306.637 439.708C306.573 439.512 306.446 439.343 306.276 439.227L299.648 434.393C299.449 434.293 299.292 434.125 299.207 433.919C299.121 433.713 299.112 433.484 299.18 433.272C299.249 433.06 299.391 432.88 299.582 432.764C299.772 432.648 299.997 432.603 300.217 432.639H308.441C308.65 432.647 308.855 432.585 309.024 432.464C309.193 432.342 309.316 432.167 309.375 431.967L311.914 424.147C311.961 423.941 312.076 423.757 312.242 423.625C312.407 423.493 312.612 423.421 312.824 423.421C313.035 423.421 313.241 423.493 313.406 423.625C313.571 423.757 313.687 423.941 313.734 424.147Z" fill="#FDB913"/>
<path d="M506.947 209.937H347.984V308.816H506.947V209.937Z" fill="#FE764B"/>
<path d="M406.653 221.704H493.99V261.728" stroke="#2A3157" stroke-width="2.52" stroke-miterlimit="10"/>
<path d="M335.027 248.383V221.704H360.735" stroke="#2A3157" stroke-width="5.05" stroke-miterlimit="10"/>
<path d="M370.154 320.583H335.027V263.295" stroke="#2A3157" stroke-width="2.52" stroke-miterlimit="10"/>
<path d="M493.99 291.748V320.583H410.779" stroke="#2A3157" stroke-width="5.05" stroke-miterlimit="10"/>
<path d="M465.024 209.937H505.136" stroke="#2A3157" stroke-width="2.52" stroke-linecap="round" stroke-linejoin="round"/>
<path d="M510.867 222.488V253.88" stroke="#2A3157" stroke-width="2.52" stroke-linecap="round" stroke-linejoin="round"/>
<path d="M413.132 254.664C418.983 254.664 423.727 249.922 423.727 244.072C423.727 238.222 418.983 233.48 413.132 233.48C407.28 233.48 402.537 238.222 402.537 244.072C402.537 249.922 407.28 254.664 413.132 254.664Z" fill="white"/>
<path d="M472.398 262.512H362.5V266.431H472.398V262.512Z" fill="#00CCBE"/>
<path d="M442.182 275.072H392.726V278.992H442.182V275.072Z" fill="#94A3C0"/>
<path d="M450.275 287.624H384.632V291.543H450.275V287.624Z" fill="#94A3C0"/>
<path d="M387.197 481.543L399.092 470.707L384.638 454.85L372.742 465.685L387.197 481.543Z" fill="#A6D0F4"/>
<path opacity="0.53" d="M373.334 457.495C394.255 438.431 395.756 406.022 376.685 385.107C357.615 364.193 325.195 362.693 304.274 381.757C283.352 400.821 281.852 433.23 300.922 454.145C319.993 475.059 352.412 476.559 373.334 457.495Z" fill="white"/>
<path d="M391.241 364.545C377.638 351.613 359.732 344.164 340.967 343.63C322.203 343.096 303.903 349.515 289.585 361.652" stroke="#4361C4" stroke-width="1.92" stroke-linecap="round" stroke-linejoin="round"/>
<path d="M292.105 462.211C300.523 471.442 311.49 477.971 323.619 480.971C335.748 483.971 348.495 483.309 360.247 479.068C372 474.826 382.231 467.196 389.646 457.143C397.061 447.089 401.327 435.063 401.905 422.586C402.484 410.108 399.348 397.739 392.894 387.044C386.441 376.348 376.96 367.805 365.65 362.495C354.34 357.186 341.709 355.348 329.354 357.214C317 359.081 305.476 364.568 296.241 372.981C290.108 378.568 285.136 385.308 281.608 392.816C278.081 400.325 276.068 408.454 275.684 416.74C275.3 425.026 276.553 433.306 279.37 441.108C282.188 448.91 286.515 456.081 292.105 462.211ZM300.917 454.186C294.089 446.695 289.636 437.349 288.121 427.328C286.606 417.307 288.098 407.062 292.407 397.889C296.717 388.716 303.651 381.026 312.332 375.793C321.013 370.559 331.052 368.016 341.179 368.486C351.306 368.956 361.066 372.417 369.225 378.432C377.384 384.447 383.576 392.746 387.017 402.279C390.458 411.811 390.994 422.15 388.558 431.988C386.121 441.825 380.821 450.719 373.328 457.545C363.28 466.699 350.006 471.487 336.427 470.857C322.847 470.227 310.074 464.23 300.917 454.186Z" fill="#2A3157"/>
<path d="M461.82 578.107L486.601 555.526L400.172 460.74L375.392 483.321L461.82 578.107Z" fill="#2A3157"/>
<path d="M467.236 584.063L492.017 561.482L486.596 555.537L461.816 578.118L467.236 584.063Z" fill="#FE764B"/>
<path d="M404.104 128.321C404.104 121.869 406.668 115.681 411.232 111.119C415.796 106.556 421.986 103.993 428.44 103.993C434.895 103.993 441.085 106.556 445.648 111.119C450.212 115.681 452.776 121.869 452.776 128.321C452.776 128.582 452.776 128.844 452.776 129.105H490.48C490.48 128.844 490.48 128.582 490.48 128.321C490.48 111.879 483.946 96.1099 472.316 84.4835C460.685 72.8571 444.911 66.3254 428.464 66.3254C412.016 66.3254 396.242 72.8571 384.612 84.4835C372.982 96.1099 366.448 111.879 366.448 128.321C366.448 128.582 366.448 128.844 366.448 129.105H404.151C404.142 128.844 404.104 128.582 404.104 128.321Z" fill="#418DFD"/>
<path d="M469.122 175.082L440.707 149.308C435.842 152.206 430.101 153.272 424.52 152.313V190.181C425.818 190.265 427.124 190.321 428.441 190.321C443.4 190.337 457.856 184.922 469.122 175.082Z" fill="#FDB913"/>
<path d="M404.151 129.105H366.448C366.645 144.728 372.737 159.701 383.505 171.026C394.272 182.35 408.921 189.192 424.52 190.181V152.304C418.959 151.401 413.885 148.593 410.169 144.36C406.453 140.127 404.325 134.734 404.151 129.105Z" fill="#F05A58"/>
<path d="M357.794 128.713C357.794 119.436 359.623 110.25 363.175 101.68C366.727 93.11 371.933 85.3234 378.496 78.7651C385.059 72.2068 392.85 67.0054 401.425 63.4579C409.999 59.9104 419.189 58.0864 428.468 58.0901" stroke="#2A3157" stroke-width="1.89" stroke-linecap="round" stroke-linejoin="round"/>
<path d="M524.991 350.016H430.793V357.08H524.991V350.016Z" fill="#232839"/>
<path d="M495.847 385.327H430.793V392.391H495.847V385.327Z" fill="#C7D8F2"/>
<path d="M464.352 367.671H430.793V374.735H464.352V367.671Z" fill="#C7D8F2"/>
<path d="M478.783 367.671H468.776V374.735H478.783V367.671Z" fill="#C7D8F2"/>
<path d="M427.656 135.385L485.747 192.673" stroke="#2A3157" stroke-width="1.89" stroke-linecap="round" stroke-linejoin="round"/>
<path d="M43.0054 284.488L55.5607 297.039" stroke="#2A3157" stroke-width="1.89" stroke-linecap="round" stroke-linejoin="round"/>
<path d="M54.7769 286.056L67.3415 298.616" stroke="#2A3157" stroke-width="1.89" stroke-linecap="round" stroke-linejoin="round"/>
<path d="M65.7734 286.056L78.3288 298.616" stroke="#2A3157" stroke-width="1.89" stroke-linecap="round" stroke-linejoin="round"/>
<path d="M449.64 425.743L462.195 438.294" stroke="#02B2CA" stroke-width="1.89" stroke-linecap="round" stroke-linejoin="round"/>
<path d="M461.411 427.311L473.976 439.862" stroke="#02B2CA" stroke-width="1.89" stroke-linecap="round" stroke-linejoin="round"/>
<path d="M472.398 427.311L484.963 439.862" stroke="#02B2CA" stroke-width="1.89" stroke-linecap="round" stroke-linejoin="round"/>
<path d="M243.966 64.7532H112.083V80.4492H243.966V64.7532Z" stroke="#2A3157" stroke-width="2.52" stroke-miterlimit="10"/>
<path d="M261.235 86.7292H250.248V97.7127H261.235V86.7292Z" stroke="#2A3157" stroke-width="2.52" stroke-miterlimit="10"/>
<path d="M476.319 488.518H488.884V475.957H476.319V488.518Z" fill="#2A3157"/>
<path d="M456.996 461.343H463.474V454.867H456.996V461.343Z" fill="#2A3157"/>
<path d="M493.196 470.862H497.91V466.149H493.196V470.862Z" fill="#2A3157"/>
<path d="M103.038 421.497V486.95H152.251" stroke="#2A3157" stroke-width="2.52" stroke-miterlimit="10"/>
<path d="M169.007 487.435H192.036" stroke="#2A3157" stroke-width="2.52" stroke-miterlimit="10"/>
<path d="M311.401 506.276C312.555 506.276 313.492 505.34 313.492 504.186C313.492 503.031 312.555 502.095 311.401 502.095C310.246 502.095 309.31 503.031 309.31 504.186C309.31 505.34 310.246 506.276 311.401 506.276Z" fill="#2A3157"/>
<path d="M328.857 506.276C330.011 506.276 330.948 505.34 330.948 504.186C330.948 503.031 330.011 502.095 328.857 502.095C327.702 502.095 326.766 503.031 326.766 504.186C326.766 505.34 327.702 506.276 328.857 506.276Z" fill="#2A3157"/>
<path d="M346.303 506.276C347.458 506.276 348.394 505.34 348.394 504.186C348.394 503.031 347.458 502.095 346.303 502.095C345.149 502.095 344.212 503.031 344.212 504.186C344.212 505.34 345.149 506.276 346.303 506.276Z" fill="#2A3157"/>
<path d="M363.75 506.276C364.905 506.276 365.841 505.34 365.841 504.186C365.841 503.031 364.905 502.095 363.75 502.095C362.595 502.095 361.659 503.031 361.659 504.186C361.659 505.34 362.595 506.276 363.75 506.276Z" fill="#2A3157"/>
<path d="M311.401 521.272C312.555 521.272 313.492 520.336 313.492 519.182C313.492 518.027 312.555 517.091 311.401 517.091C310.246 517.091 309.31 518.027 309.31 519.182C309.31 520.336 310.246 521.272 311.401 521.272Z" fill="#2A3157"/>
<path d="M328.857 521.272C330.011 521.272 330.948 520.336 330.948 519.182C330.948 518.027 330.011 517.091 328.857 517.091C327.702 517.091 326.766 518.027 326.766 519.182C326.766 520.336 327.702 521.272 328.857 521.272Z" fill="#2A3157"/>
<path d="M346.303 521.272C347.458 521.272 348.394 520.336 348.394 519.182C348.394 518.027 347.458 517.091 346.303 517.091C345.149 517.091 344.212 518.027 344.212 519.182C344.212 520.336 345.149 521.272 346.303 521.272Z" fill="#2A3157"/>
<path d="M363.75 521.272C364.905 521.272 365.841 520.336 365.841 519.182C365.841 518.027 364.905 517.091 363.75 517.091C362.595 517.091 361.659 518.027 361.659 519.182C361.659 520.336 362.595 521.272 363.75 521.272Z" fill="#2A3157"/>
<path d="M311.401 536.277C312.555 536.277 313.492 535.341 313.492 534.187C313.492 533.033 312.555 532.097 311.401 532.097C310.246 532.097 309.31 533.033 309.31 534.187C309.31 535.341 310.246 536.277 311.401 536.277Z" fill="#2A3157"/>
<path d="M328.857 536.277C330.011 536.277 330.948 535.341 330.948 534.187C330.948 533.033 330.011 532.097 328.857 532.097C327.702 532.097 326.766 533.033 326.766 534.187C326.766 535.341 327.702 536.277 328.857 536.277Z" fill="#2A3157"/>
<path d="M346.303 536.277C347.458 536.277 348.394 535.341 348.394 534.187C348.394 533.033 347.458 532.097 346.303 532.097C345.149 532.097 344.212 533.033 344.212 534.187C344.212 535.341 345.149 536.277 346.303 536.277Z" fill="#2A3157"/>
<path d="M363.75 536.277C364.905 536.277 365.841 535.341 365.841 534.187C365.841 533.033 364.905 532.097 363.75 532.097C362.595 532.097 361.659 533.033 361.659 534.187C361.659 535.341 362.595 536.277 363.75 536.277Z" fill="#2A3157"/>
<path d="M311.401 551.283C312.555 551.283 313.492 550.347 313.492 549.193C313.492 548.038 312.555 547.102 311.401 547.102C310.246 547.102 309.31 548.038 309.31 549.193C309.31 550.347 310.246 551.283 311.401 551.283Z" fill="#2A3157"/>
<path d="M328.857 551.283C330.011 551.283 330.948 550.347 330.948 549.193C330.948 548.038 330.011 547.102 328.857 547.102C327.702 547.102 326.766 548.038 326.766 549.193C326.766 550.347 327.702 551.283 328.857 551.283Z" fill="#2A3157"/>
<path d="M346.303 551.283C347.458 551.283 348.394 550.347 348.394 549.193C348.394 548.038 347.458 547.102 346.303 547.102C345.149 547.102 344.212 548.038 344.212 549.193C344.212 550.347 345.149 551.283 346.303 551.283Z" fill="#2A3157"/>
<path d="M363.75 551.283C364.905 551.283 365.841 550.347 365.841 549.193C365.841 548.038 364.905 547.102 363.75 547.102C362.595 547.102 361.659 548.038 361.659 549.193C361.659 550.347 362.595 551.283 363.75 551.283Z" fill="#2A3157"/>
<path d="M354.322 81.0463C349.171 80.8091 344.305 78.6124 340.721 74.906C348.503 67.0288 353.016 56.5013 353.357 45.4357C353.697 34.3702 349.839 23.5854 342.556 15.2452C335.273 6.90512 325.105 1.62675 314.091 0.469256C303.077 -0.688238 292.033 2.36078 283.174 9.00452C274.316 15.6483 268.298 25.3952 266.329 36.2895C264.36 47.1839 266.585 58.4197 272.558 67.7424C278.53 77.065 287.809 83.7849 298.531 86.5536C309.254 89.3223 320.627 87.935 330.369 82.6701C338.288 85.0357 346.795 84.459 354.322 81.0463Z" fill="#71CE9A"/>
<path d="M346.994 85.2363C341.843 84.9991 336.978 82.8024 333.394 79.096C341.175 71.2188 345.689 60.6912 346.029 49.6257C346.369 38.5601 342.511 27.7753 335.228 19.4352C327.945 11.0951 317.777 5.81669 306.763 4.6592C295.75 3.5017 284.705 6.55072 275.847 13.1945C266.988 19.8382 260.971 29.5851 259.002 40.4795C257.032 51.3738 259.257 62.6096 265.23 71.9323C271.203 81.255 280.481 87.9749 291.204 90.7436C301.926 93.5123 313.299 92.125 323.041 86.86C330.96 89.2257 339.468 88.649 346.994 85.2363Z" stroke="#2A3157" stroke-width="2.52" stroke-miterlimit="10"/>
<path d="M303.438 64.2211L285.114 45.9029L292.432 38.5868L303.438 49.5889L328.241 24.7944L335.559 32.1105L303.438 64.2211Z" fill="white"/>
<path d="M189.404 151.893H8.35458C3.87962 151.893 0.251953 155.52 0.251953 159.993V212.531C0.251953 217.004 3.87962 220.631 8.35458 220.631H189.404C193.879 220.631 197.506 217.004 197.506 212.531V159.993C197.506 155.52 193.879 151.893 189.404 151.893Z" fill="#1A2E35" stroke="#1A2E35" stroke-width="0.54" stroke-linecap="round" stroke-linejoin="round"/>
<path d="M192.512 149.299H11.463C6.98802 149.299 3.36035 152.925 3.36035 157.399V209.937C3.36035 214.41 6.98802 218.037 11.463 218.037H192.512C196.987 218.037 200.615 214.41 200.615 209.937V157.399C200.615 152.925 196.987 149.299 192.512 149.299Z" fill="white" stroke="#1A2E35" stroke-width="0.54" stroke-miterlimit="10"/>
<path d="M69.1712 176.034C68.8543 176.034 68.5504 176.16 68.3263 176.384C68.1022 176.608 67.9763 176.912 67.9763 177.229V188.501C67.9617 188.667 67.9816 188.833 68.0348 188.99C68.0879 189.147 68.1732 189.291 68.2851 189.413C68.3971 189.536 68.5333 189.633 68.685 189.7C68.8367 189.767 69.0007 189.801 69.1665 189.801C69.3323 189.801 69.4963 189.767 69.6481 189.7C69.7998 189.633 69.936 189.536 70.0479 189.413C70.1599 189.291 70.2452 189.147 70.2983 188.99C70.3515 188.833 70.3714 188.667 70.3567 188.501V177.229C70.3567 176.913 70.2321 176.611 70.0101 176.387C69.788 176.164 69.4865 176.037 69.1712 176.034Z" fill="#6610F2"/>
<path d="M83.7149 176.034C83.398 176.034 83.0941 176.16 82.87 176.384C82.6459 176.608 82.52 176.912 82.52 177.229V188.502C82.52 188.823 82.6479 189.132 82.8755 189.359C83.103 189.587 83.4117 189.715 83.7335 189.715C84.0554 189.715 84.3641 189.587 84.5916 189.359C84.8192 189.132 84.9471 188.823 84.9471 188.502V177.229C84.9472 177.069 84.9151 176.91 84.8527 176.763C84.7903 176.615 84.699 176.482 84.584 176.371C84.4691 176.259 84.3329 176.172 84.1836 176.114C84.0343 176.056 83.8749 176.029 83.7149 176.034Z" fill="#6610F2"/>
<path d="M94.6273 176.034C94.3104 176.034 94.0065 176.16 93.7824 176.384C93.5583 176.608 93.4324 176.912 93.4324 177.229V188.501C93.4178 188.667 93.4377 188.833 93.4908 188.99C93.544 189.147 93.6292 189.291 93.7412 189.413C93.8531 189.536 93.9893 189.633 94.1411 189.7C94.2928 189.767 94.4568 189.801 94.6226 189.801C94.7884 189.801 94.9524 189.767 95.1041 189.7C95.2559 189.633 95.3921 189.536 95.504 189.413C95.6159 189.291 95.7012 189.147 95.7544 188.99C95.8075 188.833 95.8274 188.667 95.8128 188.501V177.229C95.8128 176.913 95.6882 176.611 95.4661 176.387C95.2441 176.164 94.9425 176.037 94.6273 176.034Z" fill="#6610F2"/>
<path d="M101.899 176.034C101.582 176.034 101.278 176.16 101.054 176.384C100.83 176.608 100.704 176.912 100.704 177.229V188.501C100.689 188.667 100.709 188.833 100.762 188.99C100.815 189.147 100.901 189.291 101.013 189.413C101.125 189.536 101.261 189.633 101.413 189.7C101.564 189.767 101.728 189.801 101.894 189.801C102.06 189.801 102.224 189.767 102.376 189.7C102.527 189.633 102.664 189.536 102.775 189.413C102.887 189.291 102.973 189.147 103.026 188.99C103.079 188.833 103.099 188.667 103.084 188.501V177.229C103.084 176.913 102.96 176.611 102.738 176.387C102.516 176.164 102.214 176.037 101.899 176.034Z" fill="#6610F2"/>
<path d="M105.484 176.034C105.167 176.034 104.863 176.16 104.639 176.384C104.415 176.608 104.289 176.912 104.289 177.229V188.501C104.274 188.667 104.294 188.833 104.347 188.99C104.4 189.147 104.486 189.291 104.598 189.413C104.71 189.536 104.846 189.633 104.997 189.7C105.149 189.767 105.313 189.801 105.479 189.801C105.645 189.801 105.809 189.767 105.961 189.7C106.112 189.633 106.248 189.536 106.36 189.413C106.472 189.291 106.558 189.147 106.611 188.99C106.664 188.833 106.684 188.667 106.669 188.501V177.229C106.669 176.913 106.545 176.611 106.323 176.387C106.101 176.164 105.799 176.037 105.484 176.034Z" fill="#6610F2"/>
<path d="M123.705 176.034C123.548 176.034 123.393 176.065 123.248 176.125C123.103 176.185 122.971 176.273 122.86 176.384C122.749 176.495 122.661 176.627 122.601 176.772C122.541 176.916 122.51 177.072 122.51 177.229V188.501C122.495 188.667 122.515 188.833 122.568 188.99C122.622 189.147 122.707 189.291 122.819 189.413C122.931 189.536 123.067 189.633 123.219 189.7C123.37 189.767 123.534 189.801 123.7 189.801C123.866 189.801 124.03 189.767 124.182 189.7C124.334 189.633 124.47 189.536 124.582 189.413C124.694 189.291 124.779 189.147 124.832 188.99C124.885 188.833 124.905 188.667 124.89 188.501V177.229C124.89 176.913 124.766 176.611 124.544 176.387C124.322 176.164 124.02 176.037 123.705 176.034Z" fill="#6610F2"/>
<path d="M145.521 176.034C145.204 176.034 144.9 176.16 144.676 176.384C144.452 176.608 144.326 176.912 144.326 177.229V188.501C144.311 188.667 144.331 188.833 144.384 188.99C144.438 189.147 144.523 189.291 144.635 189.413C144.747 189.536 144.883 189.633 145.035 189.7C145.186 189.767 145.35 189.801 145.516 189.801C145.682 189.801 145.846 189.767 145.998 189.7C146.149 189.633 146.286 189.536 146.398 189.413C146.509 189.291 146.595 189.147 146.648 188.99C146.701 188.833 146.721 188.667 146.706 188.501V177.229C146.706 176.913 146.582 176.611 146.36 176.387C146.138 176.164 145.836 176.037 145.521 176.034Z" fill="#6610F2"/>
<path d="M156.424 176.034C156.107 176.034 155.803 176.16 155.579 176.384C155.355 176.608 155.229 176.912 155.229 177.229V188.501C155.214 188.667 155.234 188.833 155.287 188.99C155.34 189.147 155.426 189.291 155.538 189.413C155.65 189.536 155.786 189.633 155.937 189.7C156.089 189.767 156.253 189.801 156.419 189.801C156.585 189.801 156.749 189.767 156.901 189.7C157.052 189.633 157.188 189.536 157.3 189.413C157.412 189.291 157.498 189.147 157.551 188.99C157.604 188.833 157.624 188.667 157.609 188.501V177.229C157.609 176.913 157.485 176.611 157.263 176.387C157.04 176.164 156.739 176.037 156.424 176.034Z" fill="#6610F2"/>
<path d="M160.064 176.034C159.747 176.034 159.443 176.16 159.219 176.384C158.995 176.608 158.869 176.912 158.869 177.229V188.501C158.855 188.667 158.875 188.833 158.928 188.99C158.981 189.147 159.066 189.291 159.178 189.413C159.29 189.536 159.426 189.633 159.578 189.7C159.73 189.767 159.894 189.801 160.06 189.801C160.225 189.801 160.389 189.767 160.541 189.7C160.693 189.633 160.829 189.536 160.941 189.413C161.053 189.291 161.138 189.147 161.191 188.99C161.245 188.833 161.264 188.667 161.25 188.501V177.229C161.25 176.913 161.125 176.611 160.903 176.387C160.681 176.164 160.38 176.037 160.064 176.034Z" fill="#6610F2"/>
<path d="M174.561 176.034C174.244 176.034 173.941 176.16 173.716 176.384C173.492 176.608 173.366 176.912 173.366 177.229V188.501C173.352 188.667 173.372 188.833 173.425 188.99C173.478 189.147 173.563 189.291 173.675 189.413C173.787 189.536 173.923 189.633 174.075 189.7C174.227 189.767 174.391 189.801 174.557 189.801C174.722 189.801 174.886 189.767 175.038 189.7C175.19 189.633 175.326 189.536 175.438 189.413C175.55 189.291 175.635 189.147 175.688 188.99C175.742 188.833 175.762 188.667 175.747 188.501V177.229C175.747 176.913 175.622 176.611 175.4 176.387C175.178 176.164 174.877 176.037 174.561 176.034Z" fill="#6610F2"/>
<path d="M178.239 176.034C177.922 176.034 177.618 176.16 177.394 176.384C177.17 176.608 177.044 176.912 177.044 177.229V188.501C177.03 188.667 177.049 188.833 177.103 188.99C177.156 189.147 177.241 189.291 177.353 189.413C177.465 189.536 177.601 189.633 177.753 189.7C177.905 189.767 178.069 189.801 178.234 189.801C178.4 189.801 178.564 189.767 178.716 189.7C178.868 189.633 179.004 189.536 179.116 189.413C179.228 189.291 179.313 189.147 179.366 188.99C179.419 188.833 179.439 188.667 179.425 188.501V177.229C179.425 176.913 179.3 176.611 179.078 176.387C178.856 176.164 178.554 176.037 178.239 176.034Z" fill="#6610F2"/>
<path d="M181.88 176.034C181.563 176.034 181.259 176.16 181.035 176.384C180.811 176.608 180.685 176.912 180.685 177.229V188.501C180.67 188.667 180.69 188.833 180.743 188.99C180.796 189.147 180.882 189.291 180.994 189.413C181.106 189.536 181.242 189.633 181.394 189.7C181.545 189.767 181.709 189.801 181.875 189.801C182.041 189.801 182.205 189.767 182.357 189.7C182.508 189.633 182.644 189.536 182.756 189.413C182.868 189.291 182.954 189.147 183.007 188.99C183.06 188.833 183.08 188.667 183.065 188.501V177.229C183.065 176.913 182.941 176.611 182.719 176.387C182.496 176.164 182.195 176.037 181.88 176.034Z" fill="#6610F2"/>
<path d="M185.511 176.034C185.194 176.034 184.89 176.16 184.666 176.384C184.442 176.608 184.316 176.912 184.316 177.229V188.501C184.302 188.667 184.321 188.833 184.375 188.99C184.428 189.147 184.513 189.291 184.625 189.413C184.737 189.536 184.873 189.633 185.025 189.7C185.177 189.767 185.341 189.801 185.506 189.801C185.672 189.801 185.836 189.767 185.988 189.7C186.14 189.633 186.276 189.536 186.388 189.413C186.5 189.291 186.585 189.147 186.638 188.99C186.691 188.833 186.711 188.667 186.697 188.501V177.229C186.697 176.913 186.572 176.611 186.35 176.387C186.128 176.164 185.826 176.037 185.511 176.034Z" fill="#6610F2"/>
<path d="M58.3709 176.034C58.054 176.034 57.7501 176.16 57.526 176.384C57.3019 176.608 57.1761 176.912 57.1761 177.229V188.501C57.1614 188.667 57.1813 188.833 57.2345 188.99C57.2876 189.147 57.3729 189.291 57.4848 189.413C57.5968 189.536 57.733 189.633 57.8847 189.7C58.0364 189.767 58.2004 189.801 58.3662 189.801C58.5321 189.801 58.696 189.767 58.8478 189.7C58.9995 189.633 59.1357 189.536 59.2476 189.413C59.3596 189.291 59.4449 189.147 59.498 188.99C59.5512 188.833 59.5711 188.667 59.5564 188.501V177.229C59.5564 176.913 59.4318 176.611 59.2098 176.387C58.9877 176.164 58.6862 176.037 58.3709 176.034Z" fill="#6610F2"/>
<path d="M62.011 176.034C61.6942 176.034 61.3902 176.16 61.1662 176.384C60.9421 176.608 60.8162 176.912 60.8162 177.229V188.501C60.8015 188.667 60.8214 188.833 60.8746 188.99C60.9278 189.147 61.013 189.291 61.125 189.413C61.2369 189.536 61.3731 189.633 61.5248 189.7C61.6766 189.767 61.8406 189.801 62.0064 189.801C62.1722 189.801 62.3362 189.767 62.4879 189.7C62.6397 189.633 62.7758 189.536 62.8878 189.413C62.9997 189.291 63.085 189.147 63.1382 188.99C63.1913 188.833 63.2112 188.667 63.1966 188.501V177.229C63.1966 176.913 63.072 176.611 62.8499 176.387C62.6278 176.164 62.3263 176.037 62.011 176.034Z" fill="#6610F2"/>
<path d="M65.6426 176.034C65.4826 176.029 65.3232 176.056 65.1739 176.114C65.0246 176.172 64.8884 176.259 64.7735 176.371C64.6586 176.482 64.5672 176.615 64.5048 176.763C64.4424 176.91 64.4104 177.069 64.4104 177.229V188.502C64.3958 188.667 64.4157 188.833 64.4688 188.99C64.522 189.147 64.6073 189.291 64.7192 189.413C64.8312 189.536 64.9673 189.633 65.1191 189.7C65.2708 189.767 65.4348 189.801 65.6006 189.801C65.7664 189.801 65.9304 189.767 66.0822 189.7C66.2339 189.633 66.3701 189.536 66.482 189.413C66.594 189.291 66.6792 189.147 66.7324 188.99C66.7856 188.833 66.8055 188.667 66.7908 188.502V177.229C66.791 176.92 66.6716 176.623 66.4575 176.4C66.2434 176.177 65.9514 176.046 65.6426 176.034Z" fill="#6610F2"/>
<path d="M127.346 176.034C127.029 176.034 126.725 176.16 126.501 176.384C126.277 176.608 126.151 176.912 126.151 177.229V188.501C126.136 188.667 126.156 188.833 126.209 188.99C126.262 189.147 126.348 189.291 126.459 189.413C126.571 189.536 126.708 189.633 126.859 189.7C127.011 189.767 127.175 189.801 127.341 189.801C127.507 189.801 127.671 189.767 127.822 189.7C127.974 189.633 128.11 189.536 128.222 189.413C128.334 189.291 128.419 189.147 128.473 188.99C128.526 188.833 128.546 188.667 128.531 188.501V177.229C128.531 176.913 128.406 176.611 128.184 176.387C127.962 176.164 127.661 176.037 127.346 176.034Z" fill="#6610F2"/>
<path d="M109.161 176.034C108.845 176.034 108.541 176.16 108.317 176.384C108.092 176.608 107.967 176.912 107.967 177.229V188.501C107.952 188.667 107.972 188.833 108.025 188.99C108.078 189.147 108.163 189.291 108.275 189.413C108.387 189.536 108.523 189.633 108.675 189.7C108.827 189.767 108.991 189.801 109.157 189.801C109.323 189.801 109.487 189.767 109.638 189.7C109.79 189.633 109.926 189.536 110.038 189.413C110.15 189.291 110.235 189.147 110.289 188.99C110.342 188.833 110.362 188.667 110.347 188.501V177.229C110.347 176.913 110.222 176.611 110 176.387C109.778 176.164 109.477 176.037 109.161 176.034Z" fill="#6610F2"/>
<path d="M73.9971 172.208C73.9971 171.548 73.4642 171.014 72.8069 171.014C72.1496 171.014 71.6167 171.548 71.6167 172.208V193.55C71.6167 194.21 72.1496 194.744 72.8069 194.744C73.4642 194.744 73.9971 194.21 73.9971 193.55V172.208Z" fill="#6610F2"/>
<path d="M80.0833 171.014C79.7664 171.014 79.4625 171.14 79.2384 171.364C79.0143 171.588 78.8885 171.891 78.8885 172.208V193.559C78.8738 193.724 78.8937 193.891 78.9469 194.048C79 194.205 79.0853 194.349 79.1972 194.471C79.3092 194.593 79.4454 194.691 79.5971 194.758C79.7489 194.825 79.9128 194.859 80.0786 194.859C80.2445 194.859 80.4084 194.825 80.5602 194.758C80.7119 194.691 80.8481 194.593 80.96 194.471C81.072 194.349 81.1573 194.205 81.2104 194.048C81.2636 193.891 81.2835 193.724 81.2688 193.559V172.208C81.2688 171.893 81.1442 171.591 80.9222 171.367C80.7001 171.143 80.3986 171.016 80.0833 171.014Z" fill="#6610F2"/>
<path d="M90.9866 171.014C90.6697 171.014 90.3658 171.14 90.1417 171.364C89.9177 171.588 89.7918 171.891 89.7918 172.208V193.559C89.7771 193.724 89.797 193.891 89.8502 194.048C89.9033 194.205 89.9886 194.349 90.1006 194.471C90.2125 194.593 90.3487 194.691 90.5004 194.758C90.6522 194.825 90.8162 194.859 90.982 194.859C91.1478 194.859 91.3118 194.825 91.4635 194.758C91.6152 194.691 91.7514 194.593 91.8634 194.471C91.9753 194.349 92.0606 194.205 92.1137 194.048C92.1669 193.891 92.1868 193.724 92.1722 193.559V172.208C92.1722 171.893 92.0476 171.591 91.8255 171.367C91.6034 171.143 91.3019 171.016 90.9866 171.014Z" fill="#6610F2"/>
<path d="M98.2586 171.014C97.9417 171.014 97.6378 171.14 97.4137 171.364C97.1896 171.588 97.0638 171.891 97.0638 172.208V193.559C97.0491 193.724 97.069 193.891 97.1222 194.048C97.1753 194.205 97.2606 194.349 97.3725 194.471C97.4845 194.593 97.6207 194.691 97.7724 194.758C97.9241 194.825 98.0881 194.859 98.2539 194.859C98.4197 194.859 98.5837 194.825 98.7355 194.758C98.8872 194.691 99.0234 194.593 99.1353 194.471C99.2473 194.349 99.3326 194.205 99.3857 194.048C99.4389 193.891 99.4588 193.724 99.4441 193.559V172.208C99.4441 171.893 99.3195 171.591 99.0975 171.367C98.8754 171.143 98.5739 171.016 98.2586 171.014Z" fill="#6610F2"/>
<path d="M112.802 171.014C112.485 171.014 112.181 171.14 111.957 171.364C111.733 171.588 111.607 171.891 111.607 172.208V193.559C111.593 193.724 111.612 193.891 111.666 194.048C111.719 194.205 111.804 194.349 111.916 194.471C112.028 194.593 112.164 194.691 112.316 194.758C112.468 194.825 112.632 194.859 112.797 194.859C112.963 194.859 113.127 194.825 113.279 194.758C113.431 194.691 113.567 194.593 113.679 194.471C113.791 194.349 113.876 194.205 113.929 194.048C113.982 193.891 114.002 193.724 113.988 193.559V172.208C113.988 171.893 113.863 171.591 113.641 171.367C113.419 171.143 113.117 171.016 112.802 171.014Z" fill="#6610F2"/>
<path d="M130.977 171.014C130.66 171.014 130.356 171.14 130.132 171.364C129.908 171.588 129.782 171.891 129.782 172.208V193.559C129.767 193.724 129.787 193.891 129.84 194.048C129.894 194.205 129.979 194.349 130.091 194.471C130.203 194.593 130.339 194.691 130.491 194.758C130.642 194.825 130.806 194.859 130.972 194.859C131.138 194.859 131.302 194.825 131.454 194.758C131.605 194.691 131.742 194.593 131.854 194.471C131.966 194.349 132.051 194.205 132.104 194.048C132.157 193.891 132.177 193.724 132.162 193.559V172.208C132.162 171.893 132.038 171.591 131.816 171.367C131.594 171.143 131.292 171.016 130.977 171.014Z" fill="#6610F2"/>
<path d="M135.803 172.208C135.803 171.548 135.27 171.014 134.613 171.014C133.956 171.014 133.423 171.548 133.423 172.208V193.55C133.423 194.21 133.956 194.744 134.613 194.744C135.27 194.744 135.803 194.21 135.803 193.55V172.208Z" fill="#6610F2"/>
<path d="M138.249 171.014C137.932 171.014 137.628 171.14 137.404 171.364C137.18 171.588 137.054 171.891 137.054 172.208V193.559C137.039 193.724 137.059 193.891 137.112 194.048C137.166 194.205 137.251 194.349 137.363 194.471C137.475 194.593 137.611 194.691 137.763 194.758C137.914 194.825 138.078 194.859 138.244 194.859C138.41 194.859 138.574 194.825 138.726 194.758C138.877 194.691 139.014 194.593 139.126 194.471C139.238 194.349 139.323 194.205 139.376 194.048C139.429 193.891 139.449 193.724 139.434 193.559V172.208C139.434 171.893 139.31 171.591 139.088 171.367C138.866 171.143 138.564 171.016 138.249 171.014Z" fill="#6610F2"/>
<path d="M141.889 171.014C141.573 171.014 141.269 171.14 141.045 171.364C140.821 171.588 140.695 171.891 140.695 172.208V193.559C140.68 193.724 140.7 193.891 140.753 194.048C140.806 194.205 140.891 194.349 141.003 194.471C141.115 194.593 141.252 194.691 141.403 194.758C141.555 194.825 141.719 194.859 141.885 194.859C142.051 194.859 142.215 194.825 142.366 194.758C142.518 194.691 142.654 194.593 142.766 194.471C142.878 194.349 142.963 194.205 143.017 194.048C143.07 193.891 143.09 193.724 143.075 193.559V172.208C143.075 171.893 142.95 171.591 142.728 171.367C142.506 171.143 142.205 171.016 141.889 171.014Z" fill="#6610F2"/>
<path d="M164.89 172.208C164.89 171.548 164.357 171.014 163.7 171.014C163.043 171.014 162.51 171.548 162.51 172.208V193.55C162.51 194.21 163.043 194.744 163.7 194.744C164.357 194.744 164.89 194.21 164.89 193.55V172.208Z" fill="#6610F2"/>
<path d="M170.967 171.014C170.65 171.014 170.346 171.14 170.122 171.364C169.898 171.588 169.772 171.891 169.772 172.208V193.559C169.758 193.724 169.777 193.891 169.831 194.048C169.884 194.205 169.969 194.349 170.081 194.471C170.193 194.593 170.329 194.691 170.481 194.758C170.633 194.825 170.797 194.859 170.962 194.859C171.128 194.859 171.292 194.825 171.444 194.758C171.596 194.691 171.732 194.593 171.844 194.471C171.956 194.349 172.041 194.205 172.094 194.048C172.147 193.891 172.167 193.724 172.153 193.559V172.208C172.153 171.893 172.028 171.591 171.806 171.367C171.584 171.143 171.282 171.016 170.967 171.014Z" fill="#6610F2"/>
<path d="M76.4427 166.003C76.1258 166.003 75.8219 166.129 75.5978 166.353C75.3737 166.577 75.2478 166.88 75.2478 167.197V198.58C75.2332 198.745 75.2531 198.911 75.3062 199.068C75.3594 199.225 75.4447 199.37 75.5566 199.492C75.6686 199.614 75.8047 199.712 75.9565 199.778C76.1082 199.845 76.2722 199.88 76.438 199.88C76.6038 199.88 76.7678 199.845 76.9196 199.778C77.0713 199.712 77.2075 199.614 77.3194 199.492C77.4314 199.37 77.5166 199.225 77.5698 199.068C77.623 198.911 77.6429 198.745 77.6282 198.58V167.188C77.6258 166.874 77.5001 166.574 77.2783 166.352C77.0565 166.131 76.7564 166.005 76.4427 166.003Z" fill="#6610F2"/>
<path d="M87.3553 166.003C87.0384 166.003 86.7345 166.129 86.5104 166.353C86.2863 166.577 86.1604 166.88 86.1604 167.197V198.58C86.1458 198.745 86.1657 198.911 86.2188 199.068C86.272 199.225 86.3573 199.37 86.4692 199.492C86.5812 199.614 86.7173 199.712 86.8691 199.778C87.0208 199.845 87.1848 199.88 87.3506 199.88C87.5164 199.88 87.6804 199.845 87.8322 199.778C87.9839 199.712 88.1201 199.614 88.232 199.492C88.344 199.37 88.4292 199.225 88.4824 199.068C88.5356 198.911 88.5554 198.745 88.5408 198.58V167.188C88.5384 166.874 88.4127 166.574 88.1909 166.352C87.9691 166.131 87.669 166.005 87.3553 166.003Z" fill="#6610F2"/>
<path d="M116.433 166.003C116.117 166.003 115.813 166.129 115.589 166.353C115.364 166.577 115.239 166.88 115.239 167.197V198.58C115.224 198.745 115.244 198.911 115.297 199.068C115.35 199.225 115.435 199.37 115.547 199.492C115.659 199.614 115.795 199.712 115.947 199.778C116.099 199.845 116.263 199.88 116.429 199.88C116.595 199.88 116.759 199.845 116.91 199.778C117.062 199.712 117.198 199.614 117.31 199.492C117.422 199.37 117.507 199.225 117.561 199.068C117.614 198.911 117.634 198.745 117.619 198.58V167.188C117.616 166.874 117.491 166.574 117.269 166.352C117.047 166.131 116.747 166.005 116.433 166.003Z" fill="#6610F2"/>
<path d="M120.074 166.003C119.757 166.003 119.453 166.129 119.229 166.353C119.005 166.577 118.879 166.88 118.879 167.197V198.58C118.865 198.745 118.884 198.911 118.938 199.068C118.991 199.225 119.076 199.37 119.188 199.492C119.3 199.614 119.436 199.712 119.588 199.778C119.74 199.845 119.904 199.88 120.069 199.88C120.235 199.88 120.399 199.845 120.551 199.778C120.703 199.712 120.839 199.614 120.951 199.492C121.063 199.37 121.148 199.225 121.201 199.068C121.254 198.911 121.274 198.745 121.26 198.58V167.188C121.257 166.874 121.131 166.574 120.91 166.352C120.688 166.131 120.388 166.005 120.074 166.003Z" fill="#6610F2"/>
<path d="M149.152 166.003C148.835 166.003 148.531 166.129 148.307 166.353C148.083 166.577 147.957 166.88 147.957 167.197V198.58C147.942 198.745 147.962 198.911 148.015 199.068C148.068 199.225 148.154 199.37 148.266 199.492C148.378 199.614 148.514 199.712 148.665 199.778C148.817 199.845 148.981 199.88 149.147 199.88C149.313 199.88 149.477 199.845 149.629 199.778C149.78 199.712 149.916 199.614 150.028 199.492C150.14 199.37 150.226 199.225 150.279 199.068C150.332 198.911 150.352 198.745 150.337 198.58V167.188C150.335 166.874 150.209 166.574 149.987 166.352C149.765 166.131 149.465 166.005 149.152 166.003Z" fill="#6610F2"/>
<path d="M152.792 166.003C152.475 166.003 152.171 166.129 151.947 166.353C151.723 166.577 151.597 166.88 151.597 167.197V198.58C151.583 198.745 151.603 198.911 151.656 199.068C151.709 199.225 151.794 199.37 151.906 199.492C152.018 199.614 152.154 199.712 152.306 199.778C152.458 199.845 152.622 199.88 152.788 199.88C152.953 199.88 153.117 199.845 153.269 199.778C153.421 199.712 153.557 199.614 153.669 199.492C153.781 199.37 153.866 199.225 153.919 199.068C153.973 198.911 153.992 198.745 153.978 198.58V167.188C153.975 166.874 153.85 166.574 153.628 166.352C153.406 166.131 153.106 166.005 152.792 166.003Z" fill="#6610F2"/>
<path d="M167.336 166.003C167.019 166.003 166.715 166.129 166.491 166.353C166.267 166.577 166.141 166.88 166.141 167.197V198.58C166.127 198.745 166.147 198.911 166.2 199.068C166.253 199.225 166.338 199.37 166.45 199.492C166.562 199.614 166.698 199.712 166.85 199.778C167.002 199.845 167.166 199.88 167.332 199.88C167.497 199.88 167.661 199.845 167.813 199.778C167.965 199.712 168.101 199.614 168.213 199.492C168.325 199.37 168.41 199.225 168.463 199.068C168.517 198.911 168.536 198.745 168.522 198.58V167.188C168.519 166.874 168.394 166.574 168.172 166.352C167.95 166.131 167.65 166.005 167.336 166.003Z" fill="#6610F2"/>
<path d="M31.1504 202.116C41.0025 202.116 48.9892 194.132 48.9892 184.283C48.9892 174.435 41.0025 166.45 31.1504 166.45C21.2982 166.45 13.3115 174.435 13.3115 184.283C13.3115 194.132 21.2982 202.116 31.1504 202.116Z" fill="#6610F2"/>
<path d="M44.3687 184.283L23.0386 171.975V196.592L44.3687 184.283Z" fill="white"/>
</g>
<defs>
<clipPath id="clip0_826_282">
<rect width="525" height="584" fill="white"/>
</clipPath>
</defs>
</svg>
