<svg width="14" height="14" viewBox="0 0 14 14" fill="none" xmlns="http://www.w3.org/2000/svg">
<path id="Vector" d="M8.61707 10.7007L7.71321 11.6113V7.69572C7.71321 7.50995 7.63939 7.33179 7.50799 7.20042C7.37659 7.06906 7.19838 6.99526 7.01255 6.99526C6.82672 6.99526 6.6485 7.06906 6.51711 7.20042C6.3857 7.33179 6.31188 7.50995 6.31188 7.69572V11.6113L5.40803 10.7007C5.3427 10.6354 5.26514 10.5836 5.17979 10.5482C5.09443 10.5129 5.00295 10.4947 4.91056 10.4947C4.81817 10.4947 4.72668 10.5129 4.64133 10.5482C4.55597 10.5836 4.47842 10.6354 4.41309 10.7007C4.34776 10.766 4.29594 10.8435 4.26058 10.9289C4.22522 11.0142 4.20703 11.1056 4.20703 11.198C4.20703 11.2904 4.22522 11.3818 4.26058 11.4672C4.29594 11.5525 4.34776 11.63 4.41309 11.6953L6.51508 13.7967C6.58171 13.8605 6.66029 13.9105 6.7463 13.9438C6.83017 13.9809 6.92085 14 7.01255 14C7.10425 14 7.19493 13.9809 7.2788 13.9438C7.36481 13.9105 7.44338 13.8605 7.51002 13.7967L9.61201 11.6953C9.74395 11.5634 9.81807 11.3845 9.81807 11.198C9.81807 11.0115 9.74395 10.8326 9.61201 10.7007C9.48007 10.5688 9.30113 10.4947 9.11454 10.4947C8.92795 10.4947 8.74901 10.5688 8.61707 10.7007ZM11.5108 2.94662C11.0827 1.96318 10.3438 1.1472 9.40747 0.623714C8.47109 0.100227 7.38885 -0.101886 6.32658 0.0483461C5.2643 0.198578 4.28061 0.692867 3.52622 1.45547C2.77184 2.21807 2.28838 3.20692 2.14994 4.27049C1.48192 4.43042 0.895909 4.83003 0.503198 5.39345C0.110487 5.95687 -0.0615748 6.64485 0.0196879 7.32673C0.100951 8.00862 0.429878 8.63693 0.944006 9.09234C1.45813 9.54774 2.12166 9.79854 2.80857 9.79709C2.99439 9.79709 3.17261 9.7233 3.30401 9.59193C3.43541 9.46057 3.50923 9.28241 3.50923 9.09664C3.50923 8.91086 3.43541 8.7327 3.30401 8.60134C3.17261 8.46998 2.99439 8.39618 2.80857 8.39618C2.43691 8.39618 2.08048 8.24858 1.81768 7.98586C1.55488 7.72314 1.40724 7.36681 1.40724 6.99526C1.40724 6.62372 1.55488 6.26739 1.81768 6.00467C2.08048 5.74195 2.43691 5.59435 2.80857 5.59435C2.99439 5.59435 3.17261 5.52055 3.30401 5.38919C3.43541 5.25783 3.50923 5.07967 3.50923 4.89389C3.51102 4.06545 3.80651 3.26446 4.34321 2.63323C4.87991 2.00199 5.62306 1.5814 6.44063 1.44615C7.25821 1.31091 8.09727 1.46978 8.80875 1.89454C9.52023 2.3193 10.0581 2.98244 10.3267 3.76616C10.3667 3.88652 10.4387 3.99376 10.535 4.07641C10.6312 4.15907 10.7481 4.21404 10.8732 4.23546C11.3399 4.32363 11.763 4.5672 12.0735 4.92649C12.384 5.28577 12.5636 5.7396 12.5831 6.214C12.6026 6.68841 12.4608 7.15544 12.1809 7.53898C11.9009 7.92253 11.4992 8.19998 11.0414 8.32613C10.9521 8.34913 10.8683 8.38947 10.7946 8.44487C10.721 8.50026 10.6589 8.56961 10.6121 8.64896C10.5652 8.72832 10.5345 8.81612 10.5216 8.90735C10.5087 8.99858 10.5139 9.09147 10.5369 9.18069C10.5599 9.26992 10.6002 9.35374 10.6557 9.42737C10.7111 9.50101 10.7804 9.56301 10.8598 9.60984C10.9392 9.65667 11.027 9.68742 11.1183 9.70031C11.2095 9.71321 11.3024 9.70802 11.3917 9.68502C12.1291 9.49023 12.7827 9.06021 13.2534 8.46025C13.724 7.86029 13.986 7.12317 13.9995 6.36084C14.0129 5.5985 13.7772 4.8526 13.328 4.23639C12.8789 3.62018 12.2408 3.16733 11.5108 2.94662Z" fill="#030303"/>
</svg>
