<svg width="24" height="24" viewBox="0 0 24 24" fill="none" xmlns="http://www.w3.org/2000/svg">
<path id="Vector" d="M11.9998 0C5.38318 0 0 5.38309 0 11.9998C0 18.6167 5.38318 24 11.9998 24C18.6168 24 24 18.6167 24 11.9998C23.9998 5.38309 18.6166 0 11.9998 0ZM18.3865 8.87011C18.0683 9.34658 17.6726 9.76644 17.2159 10.1123C17.2178 10.1819 17.2191 10.2516 17.2191 10.3212C17.2191 13.8206 14.5562 17.4403 10.0998 17.4403C8.73992 17.4409 7.40843 17.051 6.26374 16.3168C6.22293 16.2907 6.19218 16.2516 6.17653 16.2058C6.16088 16.16 6.16126 16.1102 6.17761 16.0646C6.19352 16.0188 6.22465 15.9798 6.26582 15.9542C6.30699 15.9285 6.35571 15.9177 6.40386 15.9237C6.59175 15.9453 6.77793 15.956 6.95747 15.956C7.8316 15.956 8.6646 15.721 9.39582 15.2719C8.95544 15.1656 8.54983 14.9478 8.21805 14.6393C7.88626 14.3308 7.63948 13.9421 7.50145 13.5106C7.49015 13.4752 7.48823 13.4374 7.49589 13.4011C7.50355 13.3647 7.52053 13.3309 7.54515 13.303C7.56978 13.2751 7.6013 13.2542 7.63657 13.2422C7.67183 13.2303 7.70961 13.2279 7.74612 13.2351C7.78639 13.2428 7.82689 13.2495 7.86717 13.255C7.12309 12.7809 6.64039 11.9473 6.64039 11.0243V10.9937C6.6404 10.9564 6.65015 10.9198 6.66867 10.8874C6.68719 10.8551 6.71383 10.8281 6.74596 10.8092C6.7781 10.7903 6.81461 10.7801 6.85189 10.7796C6.88917 10.7791 6.92594 10.7884 6.95854 10.8064C7.05174 10.8581 7.14837 10.9029 7.24756 10.9406C6.86683 10.47 6.65941 9.88289 6.6601 9.27761C6.6601 8.81098 6.78372 8.35165 7.01746 7.94951C7.03486 7.91953 7.05927 7.89422 7.08859 7.87575C7.11792 7.85728 7.15129 7.8462 7.18584 7.84346C7.22039 7.84072 7.25509 7.84641 7.28696 7.86003C7.31883 7.87365 7.34693 7.8948 7.36883 7.92166C8.50841 9.31896 10.165 10.198 11.9469 10.36C11.9342 10.2538 11.9279 10.147 11.928 10.0401C11.928 8.58389 13.113 7.39912 14.5695 7.39912C15.2566 7.39912 15.9214 7.67014 16.4118 8.14619C16.8911 8.03949 17.3504 7.85733 17.7725 7.60651C17.783 7.57345 17.8014 7.54345 17.8261 7.51907C17.8508 7.4947 17.881 7.47668 17.9142 7.46658C17.9474 7.45647 17.9825 7.45458 18.0166 7.46106C18.0507 7.46754 18.0827 7.4822 18.1099 7.50378C18.137 7.52536 18.1586 7.55321 18.1726 7.58495C18.1866 7.61668 18.1927 7.65134 18.1904 7.68596C18.188 7.72057 18.1773 7.7541 18.1592 7.78366C18.141 7.81323 18.1159 7.83794 18.0861 7.85567C17.9812 8.18459 17.8123 8.48952 17.5891 8.75292C17.7706 8.69808 17.9486 8.63197 18.1219 8.55496C18.1644 8.53622 18.2117 8.53176 18.2569 8.54226C18.3021 8.55276 18.3427 8.57765 18.3725 8.61319C18.4024 8.64873 18.4199 8.69299 18.4224 8.73932C18.4249 8.78566 18.4123 8.83155 18.3865 8.87011Z" fill="black"/>
</svg>
