<svg width="13" height="13" viewBox="0 0 13 13" fill="none" xmlns="http://www.w3.org/2000/svg">
<path id="Vector" d="M6.85034 6.8496L11.5686 6.85335C11.7097 6.85335 11.8451 6.79728 11.9449 6.69749C12.0447 6.59769 12.1008 6.46233 12.1008 6.32119C12.1008 6.18005 12.0447 6.04469 11.9449 5.94489C11.8451 5.84509 11.7097 5.78903 11.5686 5.78903L6.85034 5.79278L6.85409 1.07452C6.85409 0.933382 6.79802 0.798024 6.69822 0.698224C6.59842 0.598425 6.46307 0.542358 6.32193 0.542358C6.18079 0.542358 6.04543 0.598425 5.94563 0.698224C5.84583 0.798024 5.78977 0.933382 5.78977 1.07452L5.79351 5.79278L1.07526 5.78903C1.00529 5.78874 0.935965 5.80231 0.87127 5.82895C0.806576 5.85559 0.747797 5.89478 0.698324 5.94425C0.648851 5.99373 0.609663 6.05251 0.583021 6.1172C0.556379 6.1819 0.54281 6.25122 0.543097 6.32119C0.54281 6.39115 0.556378 6.46048 0.58302 6.52518C0.609662 6.58987 0.648851 6.64865 0.698324 6.69812C0.747797 6.7476 0.806576 6.78679 0.87127 6.81343C0.935964 6.84007 1.00529 6.85364 1.07526 6.85335L5.79351 6.8496L5.78977 11.5679C5.78948 11.6378 5.80305 11.7072 5.82969 11.7718C5.85633 11.8365 5.89552 11.8953 5.94499 11.9448C5.99447 11.9943 6.05325 12.0335 6.11794 12.0601C6.18263 12.0867 6.25196 12.1003 6.32193 12.1C6.39189 12.1003 6.46122 12.0867 6.52592 12.0601C6.59061 12.0335 6.64939 11.9943 6.69886 11.9448C6.74834 11.8953 6.78753 11.8365 6.81417 11.7718C6.84081 11.7072 6.85438 11.6378 6.85409 11.5679L6.85034 6.8496Z" stroke="white"/>
</svg>
